ffmpeg version n8.0.1 Copyright (c) 2000-2025 the FFmpeg developers
  built with gcc 15.2.1 (GCC) 20260103
  configuration: --prefix=/usr --disable-debug --disable-static --disable-stripping --enable-amf --enable-avisynth --enable-cuda-llvm --enable-lto --enable-fontconfig --enable-frei0r --enable-gmp --enable-gnutls --enable-gpl --enable-ladspa --enable-libaom --enable-libass --enable-libbluray --enable-libbs2b --enable-libdav1d --enable-libdrm --enable-libdvdnav --enable-libdvdread --enable-libfreetype --enable-libfribidi --enable-libglslang --enable-libgsm --enable-libharfbuzz --enable-libiec61883 --enable-libjack --enable-libjxl --enable-libmodplug --enable-libmp3lame --enable-libopencore_amrnb --enable-libopencore_amrwb --enable-libopenjpeg --enable-libopenmpt --enable-libopus --enable-libplacebo --enable-libpulse --enable-librav1e --enable-librsvg --enable-librubberband --enable-libsnappy --enable-libsoxr --enable-libspeex --enable-libsrt --enable-libssh --enable-libsvtav1 --enable-libtheora --enable-libv4l2 --enable-libvidstab --enable-libvmaf --enable-libvorbis --enable-libvpl --enable-libvpx --enable-libwebp --enable-libx264 --enable-libx265 --enable-libxcb --enable-libxml2 --enable-libxvid --enable-libzimg --enable-libzmq --enable-nvdec --enable-nvenc --enable-opencl --enable-opengl --enable-shared --enable-vapoursynth --enable-version3 --enable-vulkan
  libavutil      60.  8.100 / 60.  8.100
  libavcodec     62. 11.100 / 62. 11.100
  libavformat    62.  3.100 / 62.  3.100
  libavdevice    62.  1.100 / 62.  1.100
  libavfilter    11.  4.100 / 11.  4.100
  libswscale      9.  1.100 /  9.  1.100
  libswresample   6.  1.100 /  6.  1.100
[video4linux2,v4l2 @ 0x55a92596d440] The driver changed the time per frame from 1/30 to 1/10
Input #0, video4linux2,v4l2, from '/dev/video0':
  Duration: N/A, start: 53314.225763, bitrate: 147456 kb/s
  Stream #0:0: Video: rawvideo (YUY2 / 0x32595559), yuyv422, 1280x720, 147456 kb/s, 10 fps, 10 tbr, 1000k tbn, start 53314.225763
Stream mapping:
  Stream #0:0 -> #0:0 (rawvideo (native) -> h264 (libx264))
Press [q] to stop, [?] for help
[libx264 @ 0x55a9259725c0] using cpu capabilities: MMX2 SSE2Fast SSSE3 SSE4.2 AVX FMA3 BMI2 AVX2 AVX512
[libx264 @ 0x55a9259725c0] profile High, level 3.1, 4:2:0, 8-bit
[libx264 @ 0x55a9259725c0] 264 - core 165 r3222 b35605a - H.264/MPEG-4 AVC codec - Copyleft 2003-2025 - http://www.videolan.org/x264.html - options: cabac=1 ref=1 deblock=1:0:0 analyse=0x3:0x113 me=hex subme=2 psy=1 psy_rd=1.00:0.00 mixed_ref=0 me_range=16 chroma_me=1 trellis=0 8x8dct=1 cqm=0 deadzone=21,11 fast_pskip=1 chroma_qp_offset=0 threads=11 lookahead_threads=11 sliced_threads=1 slices=11 nr=0 decimate=1 interlaced=0 bluray_compat=0 constrained_intra=0 bframes=0 weightp=1 keyint=30 keyint_min=3 scenecut=0 intra_refresh=0 rc=crf mbtree=0 crf=23.0 qcomp=0.60 qpmin=0 qpmax=69 qpstep=4 ip_ratio=1.40 aq=1:1.00
Output #0, hls, to '/home/nian/Downloads/files/hls/stream.m3u8':
  Metadata:
    encoder         : Lavf62.3.100
  Stream #0:0: Video: h264, yuv420p(tv, progressive), 1280x720, q=2-31, 10 fps, 90k tbn
    Metadata:
      encoder         : Lavc62.11.100 libx264
    Side data:
      cpb: bitrate max/min/avg: 0/0/0 buffer size: 0 vbv_delay: N/A
frame=    6 fps=0.0 q=23.0 size=N/A time=00:00:00.60 bitrate=N/A dup=1 drop=0 speed= 1.2x elapsed=0:00:00.50    frame=   11 fps= 11 q=23.0 size=N/A time=00:00:01.10 bitrate=N/A dup=1 drop=0 speed= 1.1x elapsed=0:00:01.00    frame=   16 fps= 11 q=23.0 size=N/A time=00:00:01.60 bitrate=N/A dup=1 drop=0 speed=1.07x elapsed=0:00:01.50    frame=   21 fps= 10 q=23.0 size=N/A time=00:00:02.10 bitrate=N/A dup=1 drop=0 speed=1.05x elapsed=0:00:02.00    frame=   26 fps= 10 q=23.0 size=N/A time=00:00:02.60 bitrate=N/A dup=1 drop=0 speed=1.04x elapsed=0:00:02.50    [hls @ 0x55a92596fac0] Opening '/home/nian/Downloads/files/hls/segment_000.ts' for writing
[hls @ 0x55a92596fac0] Opening '/home/nian/Downloads/files/hls/stream.m3u8.tmp' for writing
frame=   31 fps= 10 q=20.0 size=N/A time=00:00:03.10 bitrate=N/A dup=1 drop=0 speed=1.03x elapsed=0:00:03.00    frame=   36 fps= 10 q=23.0 size=N/A time=00:00:03.60 bitrate=N/A dup=1 drop=0 speed=1.03x elapsed=0:00:03.50    frame=   41 fps= 10 q=23.0 size=N/A time=00:00:04.10 bitrate=N/A dup=1 drop=0 speed=1.02x elapsed=0:00:04.00    frame=   46 fps= 10 q=23.0 size=N/A time=00:00:04.60 bitrate=N/A dup=1 drop=0 speed=1.02x elapsed=0:00:04.50    frame=   51 fps= 10 q=23.0 size=N/A time=00:00:05.10 bitrate=N/A dup=1 drop=0 speed=1.02x elapsed=0:00:05.00    frame=   56 fps= 10 q=23.0 size=N/A time=00:00:05.60 bitrate=N/A dup=1 drop=0 speed=1.02x elapsed=0:00:05.50    [hls @ 0x55a92596fac0] Opening '/home/nian/Downloads/files/hls/segment_001.ts' for writing
[hls @ 0x55a92596fac0] Opening '/home/nian/Downloads/files/hls/stream.m3u8.tmp' for writing
frame=   61 fps= 10 q=20.0 size=N/A time=00:00:06.10 bitrate=N/A dup=1 drop=0 speed=1.02x elapsed=0:00:06.00    frame=   66 fps= 10 q=23.0 size=N/A time=00:00:06.60 bitrate=N/A dup=1 drop=0 speed=1.02x elapsed=0:00:06.50    frame=   71 fps= 10 q=23.0 size=N/A time=00:00:07.10 bitrate=N/A dup=1 drop=0 speed=1.01x elapsed=0:00:07.00    frame=   76 fps= 10 q=23.0 size=N/A time=00:00:07.60 bitrate=N/A dup=1 drop=0 speed=1.01x elapsed=0:00:07.50    frame=   81 fps= 10 q=23.0 size=N/A time=00:00:08.10 bitrate=N/A dup=1 drop=0 speed=1.01x elapsed=0:00:08.00    frame=   86 fps= 10 q=23.0 size=N/A time=00:00:08.60 bitrate=N/A dup=1 drop=0 speed=1.01x elapsed=0:00:08.50    [hls @ 0x55a92596fac0] Opening '/home/nian/Downloads/files/hls/segment_002.ts' for writing
[hls @ 0x55a92596fac0] Opening '/home/nian/Downloads/files/hls/stream.m3u8.tmp' for writing
frame=   91 fps= 10 q=20.0 size=N/A time=00:00:09.10 bitrate=N/A dup=1 drop=0 speed=1.01x elapsed=0:00:09.00    frame=   96 fps= 10 q=23.0 size=N/A time=00:00:09.60 bitrate=N/A dup=1 drop=0 speed=1.01x elapsed=0:00:09.50    frame=  101 fps= 10 q=23.0 size=N/A time=00:00:10.10 bitrate=N/A dup=1 drop=0 speed=1.01x elapsed=0:00:10.00    frame=  106 fps= 10 q=23.0 size=N/A time=00:00:10.60 bitrate=N/A dup=1 drop=0 speed=1.01x elapsed=0:00:10.50    frame=  111 fps= 10 q=23.0 size=N/A time=00:00:11.10 bitrate=N/A dup=1 drop=0 speed=1.01x elapsed=0:00:11.00    frame=  116 fps= 10 q=23.0 size=N/A time=00:00:11.60 bitrate=N/A dup=1 drop=0 speed=1.01x elapsed=0:00:11.50    [hls @ 0x55a92596fac0] Opening '/home/nian/Downloads/files/hls/segment_003.ts' for writing
[hls @ 0x55a92596fac0] Opening '/home/nian/Downloads/files/hls/stream.m3u8.tmp' for writing
frame=  121 fps= 10 q=20.0 size=N/A time=00:00:12.10 bitrate=N/A dup=1 drop=0 speed=1.01x elapsed=0:00:12.00    frame=  126 fps= 10 q=23.0 size=N/A time=00:00:12.60 bitrate=N/A dup=1 drop=0 speed=1.01x elapsed=0:00:12.50    frame=  131 fps= 10 q=23.0 size=N/A time=00:00:13.10 bitrate=N/A dup=1 drop=0 speed=1.01x elapsed=0:00:13.00    frame=  136 fps= 10 q=23.0 size=N/A time=00:00:13.60 bitrate=N/A dup=1 drop=0 speed=1.01x elapsed=0:00:13.50    frame=  141 fps= 10 q=23.0 size=N/A time=00:00:14.10 bitrate=N/A dup=1 drop=0 speed=1.01x elapsed=0:00:14.00    frame=  146 fps= 10 q=23.0 size=N/A time=00:00:14.60 bitrate=N/A dup=1 drop=0 speed=1.01x elapsed=0:00:14.50    [hls @ 0x55a92596fac0] Opening '/home/nian/Downloads/files/hls/segment_004.ts' for writing
[hls @ 0x55a92596fac0] Opening '/home/nian/Downloads/files/hls/stream.m3u8.tmp' for writing
frame=  151 fps= 10 q=20.0 size=N/A time=00:00:15.10 bitrate=N/A dup=1 drop=0 speed=1.01x elapsed=0:00:15.00    frame=  156 fps= 10 q=23.0 size=N/A time=00:00:15.60 bitrate=N/A dup=1 drop=0 speed=1.01x elapsed=0:00:15.50    frame=  161 fps= 10 q=23.0 size=N/A time=00:00:16.10 bitrate=N/A dup=1 drop=0 speed=1.01x elapsed=0:00:16.00    frame=  166 fps= 10 q=23.0 size=N/A time=00:00:16.60 bitrate=N/A dup=1 drop=0 speed=1.01x elapsed=0:00:16.50    frame=  172 fps= 10 q=23.0 size=N/A time=00:00:17.20 bitrate=N/A dup=1 drop=0 speed=1.01x elapsed=0:00:17.00    frame=  176 fps= 10 q=23.0 size=N/A time=00:00:17.60 bitrate=N/A dup=1 drop=0 speed=1.01x elapsed=0:00:17.50    [hls @ 0x55a92596fac0] Opening '/home/nian/Downloads/files/hls/segment_005.ts' for writing
[hls @ 0x55a92596fac0] Opening '/home/nian/Downloads/files/hls/stream.m3u8.tmp' for writing
frame=  181 fps= 10 q=20.0 size=N/A time=00:00:18.10 bitrate=N/A dup=1 drop=0 speed=1.01x elapsed=0:00:18.00    frame=  187 fps= 10 q=23.0 size=N/A time=00:00:18.70 bitrate=N/A dup=1 drop=0 speed=1.01x elapsed=0:00:18.50    frame=  191 fps= 10 q=23.0 size=N/A time=00:00:19.10 bitrate=N/A dup=1 drop=0 speed=1.01x elapsed=0:00:19.00    frame=  196 fps= 10 q=23.0 size=N/A time=00:00:19.60 bitrate=N/A dup=1 drop=0 speed=   1x elapsed=0:00:19.50    frame=  201 fps= 10 q=23.0 size=N/A time=00:00:20.10 bitrate=N/A dup=1 drop=0 speed=   1x elapsed=0:00:20.00    frame=  206 fps= 10 q=23.0 size=N/A time=00:00:20.60 bitrate=N/A dup=1 drop=0 speed=   1x elapsed=0:00:20.50    [hls @ 0x55a92596fac0] Opening '/home/nian/Downloads/files/hls/segment_006.ts' for writing
[hls @ 0x55a92596fac0] Opening '/home/nian/Downloads/files/hls/stream.m3u8.tmp' for writing
frame=  212 fps= 10 q=23.0 size=N/A time=00:00:21.20 bitrate=N/A dup=1 drop=0 speed=1.01x elapsed=0:00:21.00    frame=  216 fps= 10 q=23.0 size=N/A time=00:00:21.60 bitrate=N/A dup=1 drop=0 speed=   1x elapsed=0:00:21.50    frame=  221 fps= 10 q=23.0 size=N/A time=00:00:22.10 bitrate=N/A dup=1 drop=0 speed=   1x elapsed=0:00:22.00    frame=  227 fps= 10 q=23.0 size=N/A time=00:00:22.70 bitrate=N/A dup=1 drop=0 speed=1.01x elapsed=0:00:22.50    frame=  231 fps= 10 q=23.0 size=N/A time=00:00:23.10 bitrate=N/A dup=1 drop=0 speed=   1x elapsed=0:00:23.00    frame=  236 fps= 10 q=23.0 size=N/A time=00:00:23.60 bitrate=N/A dup=1 drop=0 speed=   1x elapsed=0:00:23.50    [hls @ 0x55a92596fac0] Opening '/home/nian/Downloads/files/hls/segment_007.ts' for writing
[hls @ 0x55a92596fac0] Opening '/home/nian/Downloads/files/hls/stream.m3u8.tmp' for writing
frame=  241 fps= 10 q=20.0 size=N/A time=00:00:24.10 bitrate=N/A dup=1 drop=0 speed=   1x elapsed=0:00:24.00    frame=  246 fps= 10 q=23.0 size=N/A time=00:00:24.60 bitrate=N/A dup=1 drop=0 speed=   1x elapsed=0:00:24.50    frame=  251 fps= 10 q=23.0 size=N/A time=00:00:25.10 bitrate=N/A dup=1 drop=0 speed=   1x elapsed=0:00:25.00    frame=  257 fps= 10 q=23.0 size=N/A time=00:00:25.70 bitrate=N/A dup=1 drop=0 speed=1.01x elapsed=0:00:25.50    frame=  261 fps= 10 q=23.0 size=N/A time=00:00:26.10 bitrate=N/A dup=1 drop=0 speed=   1x elapsed=0:00:26.00    frame=  267 fps= 10 q=23.0 size=N/A time=00:00:26.70 bitrate=N/A dup=1 drop=0 speed=1.01x elapsed=0:00:26.50    [hls @ 0x55a92596fac0] Opening '/home/nian/Downloads/files/hls/segment_008.ts' for writing
[hls @ 0x55a92596fac0] Opening '/home/nian/Downloads/files/hls/stream.m3u8.tmp' for writing
frame=  271 fps= 10 q=20.0 size=N/A time=00:00:27.10 bitrate=N/A dup=1 drop=0 speed=   1x elapsed=0:00:27.00    frame=  277 fps= 10 q=23.0 size=N/A time=00:00:27.70 bitrate=N/A dup=1 drop=0 speed=1.01x elapsed=0:00:27.50    frame=  281 fps= 10 q=23.0 size=N/A time=00:00:28.10 bitrate=N/A dup=1 drop=0 speed=   1x elapsed=0:00:28.00    frame=  287 fps= 10 q=23.0 size=N/A time=00:00:28.70 bitrate=N/A dup=1 drop=0 speed=1.01x elapsed=0:00:28.50    frame=  291 fps= 10 q=23.0 size=N/A time=00:00:29.10 bitrate=N/A dup=1 drop=0 speed=   1x elapsed=0:00:29.00    frame=  296 fps= 10 q=23.0 size=N/A time=00:00:29.60 bitrate=N/A dup=1 drop=0 speed=   1x elapsed=0:00:29.50    [hls @ 0x55a92596fac0] Opening '/home/nian/Downloads/files/hls/segment_009.ts' for writing
[hls @ 0x55a92596fac0] Opening '/home/nian/Downloads/files/hls/stream.m3u8.tmp' for writing
frame=  301 fps= 10 q=20.0 size=N/A time=00:00:30.10 bitrate=N/A dup=1 drop=0 speed=   1x elapsed=0:00:30.00    frame=  306 fps= 10 q=23.0 size=N/A time=00:00:30.60 bitrate=N/A dup=1 drop=0 speed=   1x elapsed=0:00:30.50    frame=  312 fps= 10 q=23.0 size=N/A time=00:00:31.20 bitrate=N/A dup=1 drop=0 speed=1.01x elapsed=0:00:31.00    frame=  317 fps= 10 q=23.0 size=N/A time=00:00:31.70 bitrate=N/A dup=1 drop=0 speed=1.01x elapsed=0:00:31.50    frame=  321 fps= 10 q=23.0 size=N/A time=00:00:32.10 bitrate=N/A dup=1 drop=0 speed=   1x elapsed=0:00:32.00    frame=  327 fps= 10 q=23.0 size=N/A time=00:00:32.70 bitrate=N/A dup=1 drop=0 speed=1.01x elapsed=0:00:32.50    [hls @ 0x55a92596fac0] Opening '/home/nian/Downloads/files/hls/segment_010.ts' for writing
[hls @ 0x55a92596fac0] Opening '/home/nian/Downloads/files/hls/stream.m3u8.tmp' for writing
frame=  332 fps= 10 q=23.0 size=N/A time=00:00:33.20 bitrate=N/A dup=1 drop=0 speed=1.01x elapsed=0:00:33.00    frame=  336 fps= 10 q=23.0 size=N/A time=00:00:33.60 bitrate=N/A dup=1 drop=0 speed=   1x elapsed=0:00:33.50    frame=  342 fps= 10 q=23.0 size=N/A time=00:00:34.20 bitrate=N/A dup=1 drop=0 speed=1.01x elapsed=0:00:34.00    frame=  346 fps= 10 q=23.0 size=N/A time=00:00:34.60 bitrate=N/A dup=1 drop=0 speed=   1x elapsed=0:00:34.50    frame=  352 fps= 10 q=23.0 size=N/A time=00:00:35.20 bitrate=N/A dup=1 drop=0 speed=1.01x elapsed=0:00:35.00    frame=  357 fps= 10 q=23.0 size=N/A time=00:00:35.70 bitrate=N/A dup=1 drop=0 speed=1.01x elapsed=0:00:35.50    [hls @ 0x55a92596fac0] Opening '/home/nian/Downloads/files/hls/segment_011.ts' for writing
[hls @ 0x55a92596fac0] Opening '/home/nian/Downloads/files/hls/stream.m3u8.tmp' for writing
frame=  362 fps= 10 q=23.0 size=N/A time=00:00:36.20 bitrate=N/A dup=1 drop=0 speed=1.01x elapsed=0:00:36.00    frame=  367 fps= 10 q=23.0 size=N/A time=00:00:36.70 bitrate=N/A dup=1 drop=0 speed=1.01x elapsed=0:00:36.50    frame=  371 fps= 10 q=23.0 size=N/A time=00:00:37.10 bitrate=N/A dup=1 drop=0 speed=   1x elapsed=0:00:37.00    frame=  377 fps= 10 q=23.0 size=N/A time=00:00:37.70 bitrate=N/A dup=1 drop=0 speed=1.01x elapsed=0:00:37.50    frame=  381 fps= 10 q=23.0 size=N/A time=00:00:38.10 bitrate=N/A dup=1 drop=0 speed=   1x elapsed=0:00:38.00    frame=  387 fps= 10 q=23.0 size=N/A time=00:00:38.70 bitrate=N/A dup=1 drop=0 speed=   1x elapsed=0:00:38.50    [hls @ 0x55a92596fac0] Opening '/home/nian/Downloads/files/hls/segment_012.ts' for writing
[hls @ 0x55a92596fac0] Opening '/home/nian/Downloads/files/hls/stream.m3u8.tmp' for writing
frame=  391 fps= 10 q=20.0 size=N/A time=00:00:39.10 bitrate=N/A dup=1 drop=0 speed=   1x elapsed=0:00:39.00    frame=  397 fps= 10 q=23.0 size=N/A time=00:00:39.70 bitrate=N/A dup=1 drop=0 speed=   1x elapsed=0:00:39.50    frame=  402 fps= 10 q=23.0 size=N/A time=00:00:40.20 bitrate=N/A dup=1 drop=0 speed=   1x elapsed=0:00:40.00    frame=  407 fps= 10 q=23.0 size=N/A time=00:00:40.70 bitrate=N/A dup=1 drop=0 speed=   1x elapsed=0:00:40.50    frame=  412 fps= 10 q=23.0 size=N/A time=00:00:41.20 bitrate=N/A dup=1 drop=0 speed=   1x elapsed=0:00:41.00    frame=  416 fps= 10 q=23.0 size=N/A time=00:00:41.60 bitrate=N/A dup=1 drop=0 speed=   1x elapsed=0:00:41.50    [hls @ 0x55a92596fac0] Opening '/home/nian/Downloads/files/hls/segment_013.ts' for writing
[hls @ 0x55a92596fac0] Opening '/home/nian/Downloads/files/hls/stream.m3u8.tmp' for writing
frame=  422 fps= 10 q=23.0 size=N/A time=00:00:42.20 bitrate=N/A dup=1 drop=0 speed=   1x elapsed=0:00:42.00    frame=  426 fps= 10 q=23.0 size=N/A time=00:00:42.60 bitrate=N/A dup=1 drop=0 speed=   1x elapsed=0:00:42.50    frame=  432 fps= 10 q=23.0 size=N/A time=00:00:43.20 bitrate=N/A dup=1 drop=0 speed=   1x elapsed=0:00:43.00    frame=  436 fps= 10 q=23.0 size=N/A time=00:00:43.60 bitrate=N/A dup=1 drop=0 speed=   1x elapsed=0:00:43.51    frame=  442 fps= 10 q=23.0 size=N/A time=00:00:44.20 bitrate=N/A dup=1 drop=0 speed=   1x elapsed=0:00:44.01    frame=  447 fps= 10 q=23.0 size=N/A time=00:00:44.70 bitrate=N/A dup=1 drop=0 speed=   1x elapsed=0:00:44.51    [hls @ 0x55a92596fac0] Opening '/home/nian/Downloads/files/hls/segment_014.ts' for writing
[hls @ 0x55a92596fac0] Opening '/home/nian/Downloads/files/hls/stream.m3u8.tmp' for writing
frame=  452 fps= 10 q=23.0 size=N/A time=00:00:45.20 bitrate=N/A dup=1 drop=0 speed=   1x elapsed=0:00:45.01    frame=  457 fps= 10 q=23.0 size=N/A time=00:00:45.70 bitrate=N/A dup=1 drop=0 speed=   1x elapsed=0:00:45.51    frame=  462 fps= 10 q=23.0 size=N/A time=00:00:46.20 bitrate=N/A dup=1 drop=0 speed=   1x elapsed=0:00:46.01    frame=  467 fps= 10 q=23.0 size=N/A time=00:00:46.70 bitrate=N/A dup=1 drop=0 speed=   1x elapsed=0:00:46.51    frame=  472 fps= 10 q=23.0 size=N/A time=00:00:47.20 bitrate=N/A dup=1 drop=0 speed=   1x elapsed=0:00:47.01    frame=  477 fps= 10 q=23.0 size=N/A time=00:00:47.70 bitrate=N/A dup=1 drop=0 speed=   1x elapsed=0:00:47.51    [hls @ 0x55a92596fac0] Opening '/home/nian/Downloads/files/hls/segment_015.ts' for writing
[hls @ 0x55a92596fac0] Opening '/home/nian/Downloads/files/hls/stream.m3u8.tmp' for writing
frame=  482 fps= 10 q=23.0 size=N/A time=00:00:48.20 bitrate=N/A dup=1 drop=0 speed=   1x elapsed=0:00:48.01    frame=  487 fps= 10 q=23.0 size=N/A time=00:00:48.70 bitrate=N/A dup=1 drop=0 speed=   1x elapsed=0:00:48.51    frame=  492 fps= 10 q=23.0 size=N/A time=00:00:49.20 bitrate=N/A dup=1 drop=0 speed=   1x elapsed=0:00:49.01    frame=  497 fps= 10 q=23.0 size=N/A time=00:00:49.70 bitrate=N/A dup=1 drop=0 speed=   1x elapsed=0:00:49.51    frame=  502 fps= 10 q=23.0 size=N/A time=00:00:50.20 bitrate=N/A dup=1 drop=0 speed=   1x elapsed=0:00:50.01    frame=  507 fps= 10 q=23.0 size=N/A time=00:00:50.70 bitrate=N/A dup=1 drop=0 speed=   1x elapsed=0:00:50.51    [hls @ 0x55a92596fac0] Opening '/home/nian/Downloads/files/hls/segment_016.ts' for writing
[hls @ 0x55a92596fac0] Opening '/home/nian/Downloads/files/hls/stream.m3u8.tmp' for writing
frame=  512 fps= 10 q=23.0 size=N/A time=00:00:51.20 bitrate=N/A dup=1 drop=0 speed=   1x elapsed=0:00:51.01    frame=  517 fps= 10 q=23.0 size=N/A time=00:00:51.70 bitrate=N/A dup=1 drop=0 speed=   1x elapsed=0:00:51.51    frame=  522 fps= 10 q=23.0 size=N/A time=00:00:52.20 bitrate=N/A dup=1 drop=0 speed=   1x elapsed=0:00:52.01    frame=  527 fps= 10 q=23.0 size=N/A time=00:00:52.70 bitrate=N/A dup=1 drop=0 speed=   1x elapsed=0:00:52.51    frame=  532 fps= 10 q=23.0 size=N/A time=00:00:53.20 bitrate=N/A dup=1 drop=0 speed=   1x elapsed=0:00:53.01    frame=  537 fps= 10 q=23.0 size=N/A time=00:00:53.70 bitrate=N/A dup=1 drop=0 speed=   1x elapsed=0:00:53.51    [hls @ 0x55a92596fac0] Opening '/home/nian/Downloads/files/hls/segment_017.ts' for writing
[hls @ 0x55a92596fac0] Opening '/home/nian/Downloads/files/hls/stream.m3u8.tmp' for writing
frame=  542 fps= 10 q=23.0 size=N/A time=00:00:54.20 bitrate=N/A dup=1 drop=0 speed=   1x elapsed=0:00:54.01    frame=  547 fps= 10 q=23.0 size=N/A time=00:00:54.70 bitrate=N/A dup=1 drop=0 speed=   1x elapsed=0:00:54.51    frame=  552 fps= 10 q=23.0 size=N/A time=00:00:55.20 bitrate=N/A dup=1 drop=0 speed=   1x elapsed=0:00:55.01    frame=  557 fps= 10 q=23.0 size=N/A time=00:00:55.70 bitrate=N/A dup=1 drop=0 speed=   1x elapsed=0:00:55.51    frame=  562 fps= 10 q=23.0 size=N/A time=00:00:56.20 bitrate=N/A dup=1 drop=0 speed=   1x elapsed=0:00:56.01    frame=  567 fps= 10 q=23.0 size=N/A time=00:00:56.70 bitrate=N/A dup=1 drop=0 speed=   1x elapsed=0:00:56.51    [hls @ 0x55a92596fac0] Opening '/home/nian/Downloads/files/hls/segment_018.ts' for writing
[hls @ 0x55a92596fac0] Opening '/home/nian/Downloads/files/hls/stream.m3u8.tmp' for writing
frame=  572 fps= 10 q=23.0 size=N/A time=00:00:57.20 bitrate=N/A dup=1 drop=0 speed=   1x elapsed=0:00:57.01    frame=  577 fps= 10 q=23.0 size=N/A time=00:00:57.70 bitrate=N/A dup=1 drop=0 speed=   1x elapsed=0:00:57.51    frame=  582 fps= 10 q=23.0 size=N/A time=00:00:58.20 bitrate=N/A dup=1 drop=0 speed=   1x elapsed=0:00:58.01    frame=  587 fps= 10 q=23.0 size=N/A time=00:00:58.70 bitrate=N/A dup=1 drop=0 speed=   1x elapsed=0:00:58.51    frame=  592 fps= 10 q=23.0 size=N/A time=00:00:59.20 bitrate=N/A dup=1 drop=0 speed=   1x elapsed=0:00:59.01    frame=  597 fps= 10 q=23.0 size=N/A time=00:00:59.70 bitrate=N/A dup=1 drop=0 speed=   1x elapsed=0:00:59.51    [hls @ 0x55a92596fac0] Opening '/home/nian/Downloads/files/hls/segment_019.ts' for writing
[hls @ 0x55a92596fac0] Opening '/home/nian/Downloads/files/hls/stream.m3u8.tmp' for writing
frame=  602 fps= 10 q=23.0 size=N/A time=00:01:00.20 bitrate=N/A dup=1 drop=0 speed=   1x elapsed=0:01:00.01    frame=  607 fps= 10 q=23.0 size=N/A time=00:01:00.70 bitrate=N/A dup=1 drop=0 speed=   1x elapsed=0:01:00.51    frame=  612 fps= 10 q=23.0 size=N/A time=00:01:01.20 bitrate=N/A dup=1 drop=0 speed=   1x elapsed=0:01:01.01    frame=  617 fps= 10 q=23.0 size=N/A time=00:01:01.70 bitrate=N/A dup=1 drop=0 speed=   1x elapsed=0:01:01.51    frame=  622 fps= 10 q=23.0 size=N/A time=00:01:02.20 bitrate=N/A dup=1 drop=0 speed=   1x elapsed=0:01:02.01    frame=  627 fps= 10 q=23.0 size=N/A time=00:01:02.70 bitrate=N/A dup=1 drop=0 speed=   1x elapsed=0:01:02.51    [hls @ 0x55a92596fac0] Opening '/home/nian/Downloads/files/hls/segment_020.ts' for writing
[hls @ 0x55a92596fac0] Opening '/home/nian/Downloads/files/hls/stream.m3u8.tmp' for writing
frame=  632 fps= 10 q=23.0 size=N/A time=00:01:03.20 bitrate=N/A dup=1 drop=0 speed=   1x elapsed=0:01:03.01    frame=  637 fps= 10 q=23.0 size=N/A time=00:01:03.70 bitrate=N/A dup=1 drop=0 speed=   1x elapsed=0:01:03.51    frame=  642 fps= 10 q=23.0 size=N/A time=00:01:04.20 bitrate=N/A dup=1 drop=0 speed=   1x elapsed=0:01:04.01    frame=  647 fps= 10 q=23.0 size=N/A time=00:01:04.70 bitrate=N/A dup=1 drop=0 speed=   1x elapsed=0:01:04.51    frame=  652 fps= 10 q=23.0 size=N/A time=00:01:05.20 bitrate=N/A dup=1 drop=0 speed=   1x elapsed=0:01:05.01    frame=  657 fps= 10 q=23.0 size=N/A time=00:01:05.70 bitrate=N/A dup=1 drop=0 speed=   1x elapsed=0:01:05.51    [hls @ 0x55a92596fac0] Opening '/home/nian/Downloads/files/hls/segment_021.ts' for writing
[hls @ 0x55a92596fac0] Opening '/home/nian/Downloads/files/hls/stream.m3u8.tmp' for writing
frame=  662 fps= 10 q=23.0 size=N/A time=00:01:06.20 bitrate=N/A dup=1 drop=0 speed=   1x elapsed=0:01:06.01    frame=  667 fps= 10 q=23.0 size=N/A time=00:01:06.70 bitrate=N/A dup=1 drop=0 speed=   1x elapsed=0:01:06.51    frame=  672 fps= 10 q=23.0 size=N/A time=00:01:07.20 bitrate=N/A dup=1 drop=0 speed=   1x elapsed=0:01:07.01    frame=  677 fps= 10 q=23.0 size=N/A time=00:01:07.70 bitrate=N/A dup=1 drop=0 speed=   1x elapsed=0:01:07.51    frame=  682 fps= 10 q=23.0 size=N/A time=00:01:08.20 bitrate=N/A dup=1 drop=0 speed=   1x elapsed=0:01:08.01    frame=  687 fps= 10 q=23.0 size=N/A time=00:01:08.70 bitrate=N/A dup=1 drop=0 speed=   1x elapsed=0:01:08.51    [hls @ 0x55a92596fac0] Opening '/home/nian/Downloads/files/hls/segment_022.ts' for writing
[hls @ 0x55a92596fac0] Opening '/home/nian/Downloads/files/hls/stream.m3u8.tmp' for writing
frame=  692 fps= 10 q=23.0 size=N/A time=00:01:09.20 bitrate=N/A dup=1 drop=0 speed=   1x elapsed=0:01:09.01    frame=  697 fps= 10 q=23.0 size=N/A time=00:01:09.70 bitrate=N/A dup=1 drop=0 speed=   1x elapsed=0:01:09.51    frame=  702 fps= 10 q=23.0 size=N/A time=00:01:10.20 bitrate=N/A dup=1 drop=0 speed=   1x elapsed=0:01:10.01    frame=  707 fps= 10 q=23.0 size=N/A time=00:01:10.70 bitrate=N/A dup=1 drop=0 speed=   1x elapsed=0:01:10.51    frame=  712 fps= 10 q=23.0 size=N/A time=00:01:11.20 bitrate=N/A dup=1 drop=0 speed=   1x elapsed=0:01:11.01    frame=  717 fps= 10 q=23.0 size=N/A time=00:01:11.70 bitrate=N/A dup=1 drop=0 speed=   1x elapsed=0:01:11.51    [hls @ 0x55a92596fac0] Opening '/home/nian/Downloads/files/hls/segment_023.ts' for writing
[hls @ 0x55a92596fac0] Opening '/home/nian/Downloads/files/hls/stream.m3u8.tmp' for writing
frame=  722 fps= 10 q=23.0 size=N/A time=00:01:12.20 bitrate=N/A dup=1 drop=0 speed=   1x elapsed=0:01:12.01    frame=  727 fps= 10 q=23.0 size=N/A time=00:01:12.70 bitrate=N/A dup=1 drop=0 speed=   1x elapsed=0:01:12.51    frame=  732 fps= 10 q=23.0 size=N/A time=00:01:13.20 bitrate=N/A dup=1 drop=0 speed=   1x elapsed=0:01:13.01    frame=  737 fps= 10 q=23.0 size=N/A time=00:01:13.70 bitrate=N/A dup=1 drop=0 speed=   1x elapsed=0:01:13.51    frame=  742 fps= 10 q=23.0 size=N/A time=00:01:14.20 bitrate=N/A dup=1 drop=0 speed=   1x elapsed=0:01:14.01    frame=  747 fps= 10 q=23.0 size=N/A time=00:01:14.70 bitrate=N/A dup=1 drop=0 speed=   1x elapsed=0:01:14.51    [hls @ 0x55a92596fac0] Opening '/home/nian/Downloads/files/hls/segment_024.ts' for writing
[hls @ 0x55a92596fac0] Opening '/home/nian/Downloads/files/hls/stream.m3u8.tmp' for writing
frame=  752 fps= 10 q=23.0 size=N/A time=00:01:15.20 bitrate=N/A dup=1 drop=0 speed=   1x elapsed=0:01:15.01    frame=  757 fps= 10 q=23.0 size=N/A time=00:01:15.70 bitrate=N/A dup=1 drop=0 speed=   1x elapsed=0:01:15.51    frame=  762 fps= 10 q=23.0 size=N/A time=00:01:16.20 bitrate=N/A dup=1 drop=0 speed=   1x elapsed=0:01:16.01    frame=  767 fps= 10 q=23.0 size=N/A time=00:01:16.70 bitrate=N/A dup=1 drop=0 speed=   1x elapsed=0:01:16.51    frame=  772 fps= 10 q=23.0 size=N/A time=00:01:17.20 bitrate=N/A dup=1 drop=0 speed=   1x elapsed=0:01:17.01    frame=  777 fps= 10 q=23.0 size=N/A time=00:01:17.70 bitrate=N/A dup=1 drop=0 speed=   1x elapsed=0:01:17.51    [hls @ 0x55a92596fac0] Opening '/home/nian/Downloads/files/hls/segment_025.ts' for writing
[hls @ 0x55a92596fac0] Opening '/home/nian/Downloads/files/hls/stream.m3u8.tmp' for writing
frame=  782 fps= 10 q=23.0 size=N/A time=00:01:18.20 bitrate=N/A dup=1 drop=0 speed=   1x elapsed=0:01:18.01    frame=  787 fps= 10 q=23.0 size=N/A time=00:01:18.70 bitrate=N/A dup=1 drop=0 speed=   1x elapsed=0:01:18.51    frame=  792 fps= 10 q=23.0 size=N/A time=00:01:19.20 bitrate=N/A dup=1 drop=0 speed=   1x elapsed=0:01:19.01    frame=  797 fps= 10 q=23.0 size=N/A time=00:01:19.70 bitrate=N/A dup=1 drop=0 speed=   1x elapsed=0:01:19.51    frame=  802 fps= 10 q=23.0 size=N/A time=00:01:20.20 bitrate=N/A dup=1 drop=0 speed=   1x elapsed=0:01:20.01    frame=  807 fps= 10 q=23.0 size=N/A time=00:01:20.70 bitrate=N/A dup=1 drop=0 speed=   1x elapsed=0:01:20.51    [hls @ 0x55a92596fac0] Opening '/home/nian/Downloads/files/hls/segment_026.ts' for writing
[hls @ 0x55a92596fac0] Opening '/home/nian/Downloads/files/hls/stream.m3u8.tmp' for writing
frame=  812 fps= 10 q=23.0 size=N/A time=00:01:21.20 bitrate=N/A dup=1 drop=0 speed=   1x elapsed=0:01:21.01    frame=  817 fps= 10 q=23.0 size=N/A time=00:01:21.70 bitrate=N/A dup=1 drop=0 speed=   1x elapsed=0:01:21.51    frame=  822 fps= 10 q=23.0 size=N/A time=00:01:22.20 bitrate=N/A dup=1 drop=0 speed=   1x elapsed=0:01:22.02    frame=  827 fps= 10 q=23.0 size=N/A time=00:01:22.70 bitrate=N/A dup=1 drop=0 speed=   1x elapsed=0:01:22.52    frame=  832 fps= 10 q=23.0 size=N/A time=00:01:23.20 bitrate=N/A dup=1 drop=0 speed=   1x elapsed=0:01:23.02    frame=  837 fps= 10 q=23.0 size=N/A time=00:01:23.70 bitrate=N/A dup=1 drop=0 speed=   1x elapsed=0:01:23.52    [hls @ 0x55a92596fac0] Opening '/home/nian/Downloads/files/hls/segment_027.ts' for writing
[hls @ 0x55a92596fac0] Opening '/home/nian/Downloads/files/hls/stream.m3u8.tmp' for writing
frame=  842 fps= 10 q=23.0 size=N/A time=00:01:24.20 bitrate=N/A dup=1 drop=0 speed=   1x elapsed=0:01:24.02    frame=  847 fps= 10 q=23.0 size=N/A time=00:01:24.70 bitrate=N/A dup=1 drop=0 speed=   1x elapsed=0:01:24.52    frame=  852 fps= 10 q=23.0 size=N/A time=00:01:25.20 bitrate=N/A dup=1 drop=0 speed=   1x elapsed=0:01:25.02    frame=  857 fps= 10 q=23.0 size=N/A time=00:01:25.70 bitrate=N/A dup=1 drop=0 speed=   1x elapsed=0:01:25.52    frame=  862 fps= 10 q=23.0 size=N/A time=00:01:26.20 bitrate=N/A dup=1 drop=0 speed=   1x elapsed=0:01:26.02    frame=  867 fps= 10 q=23.0 size=N/A time=00:01:26.70 bitrate=N/A dup=1 drop=0 speed=   1x elapsed=0:01:26.52    [hls @ 0x55a92596fac0] Opening '/home/nian/Downloads/files/hls/segment_028.ts' for writing
[hls @ 0x55a92596fac0] Opening '/home/nian/Downloads/files/hls/stream.m3u8.tmp' for writing
frame=  872 fps= 10 q=23.0 size=N/A time=00:01:27.20 bitrate=N/A dup=1 drop=0 speed=   1x elapsed=0:01:27.02    frame=  877 fps= 10 q=23.0 size=N/A time=00:01:27.70 bitrate=N/A dup=1 drop=0 speed=   1x elapsed=0:01:27.52    frame=  882 fps= 10 q=23.0 size=N/A time=00:01:28.20 bitrate=N/A dup=1 drop=0 speed=   1x elapsed=0:01:28.02    frame=  887 fps= 10 q=23.0 size=N/A time=00:01:28.70 bitrate=N/A dup=1 drop=0 speed=   1x elapsed=0:01:28.52    frame=  892 fps= 10 q=23.0 size=N/A time=00:01:29.20 bitrate=N/A dup=1 drop=0 speed=   1x elapsed=0:01:29.02    frame=  897 fps= 10 q=23.0 size=N/A time=00:01:29.70 bitrate=N/A dup=1 drop=0 speed=   1x elapsed=0:01:29.52    [hls @ 0x55a92596fac0] Opening '/home/nian/Downloads/files/hls/segment_029.ts' for writing
[hls @ 0x55a92596fac0] Opening '/home/nian/Downloads/files/hls/stream.m3u8.tmp' for writing
frame=  902 fps= 10 q=23.0 size=N/A time=00:01:30.20 bitrate=N/A dup=1 drop=0 speed=   1x elapsed=0:01:30.02    frame=  907 fps= 10 q=23.0 size=N/A time=00:01:30.70 bitrate=N/A dup=1 drop=0 speed=   1x elapsed=0:01:30.52    frame=  912 fps= 10 q=23.0 size=N/A time=00:01:31.20 bitrate=N/A dup=1 drop=0 speed=   1x elapsed=0:01:31.02    frame=  917 fps= 10 q=23.0 size=N/A time=00:01:31.70 bitrate=N/A dup=1 drop=0 speed=   1x elapsed=0:01:31.52    frame=  922 fps= 10 q=23.0 size=N/A time=00:01:32.20 bitrate=N/A dup=1 drop=0 speed=   1x elapsed=0:01:32.02    frame=  927 fps= 10 q=23.0 size=N/A time=00:01:32.70 bitrate=N/A dup=1 drop=0 speed=   1x elapsed=0:01:32.52    [hls @ 0x55a92596fac0] Opening '/home/nian/Downloads/files/hls/segment_030.ts' for writing
[hls @ 0x55a92596fac0] Opening '/home/nian/Downloads/files/hls/stream.m3u8.tmp' for writing
frame=  932 fps= 10 q=23.0 size=N/A time=00:01:33.20 bitrate=N/A dup=1 drop=0 speed=   1x elapsed=0:01:33.02    frame=  937 fps= 10 q=23.0 size=N/A time=00:01:33.70 bitrate=N/A dup=1 drop=0 speed=   1x elapsed=0:01:33.52    frame=  942 fps= 10 q=23.0 size=N/A time=00:01:34.20 bitrate=N/A dup=1 drop=0 speed=   1x elapsed=0:01:34.02    frame=  947 fps= 10 q=23.0 size=N/A time=00:01:34.70 bitrate=N/A dup=1 drop=0 speed=   1x elapsed=0:01:34.52    frame=  952 fps= 10 q=23.0 size=N/A time=00:01:35.20 bitrate=N/A dup=1 drop=0 speed=   1x elapsed=0:01:35.02    frame=  957 fps= 10 q=23.0 size=N/A time=00:01:35.70 bitrate=N/A dup=1 drop=0 speed=   1x elapsed=0:01:35.52    [hls @ 0x55a92596fac0] Opening '/home/nian/Downloads/files/hls/segment_031.ts' for writing
[hls @ 0x55a92596fac0] Opening '/home/nian/Downloads/files/hls/stream.m3u8.tmp' for writing
frame=  962 fps= 10 q=23.0 size=N/A time=00:01:36.20 bitrate=N/A dup=1 drop=0 speed=   1x elapsed=0:01:36.02    frame=  967 fps= 10 q=23.0 size=N/A time=00:01:36.70 bitrate=N/A dup=1 drop=0 speed=   1x elapsed=0:01:36.52    frame=  972 fps= 10 q=23.0 size=N/A time=00:01:37.20 bitrate=N/A dup=1 drop=0 speed=   1x elapsed=0:01:37.02    frame=  977 fps= 10 q=23.0 size=N/A time=00:01:37.70 bitrate=N/A dup=1 drop=0 speed=   1x elapsed=0:01:37.52    frame=  982 fps= 10 q=23.0 size=N/A time=00:01:38.20 bitrate=N/A dup=1 drop=0 speed=   1x elapsed=0:01:38.02    frame=  987 fps= 10 q=23.0 size=N/A time=00:01:38.70 bitrate=N/A dup=1 drop=0 speed=   1x elapsed=0:01:38.52    [hls @ 0x55a92596fac0] Opening '/home/nian/Downloads/files/hls/segment_032.ts' for writing
[hls @ 0x55a92596fac0] Opening '/home/nian/Downloads/files/hls/stream.m3u8.tmp' for writing
frame=  992 fps= 10 q=23.0 size=N/A time=00:01:39.20 bitrate=N/A dup=1 drop=0 speed=   1x elapsed=0:01:39.02    frame=  997 fps= 10 q=23.0 size=N/A time=00:01:39.70 bitrate=N/A dup=1 drop=0 speed=   1x elapsed=0:01:39.52    frame= 1002 fps= 10 q=23.0 size=N/A time=00:01:40.20 bitrate=N/A dup=1 drop=0 speed=   1x elapsed=0:01:40.02    frame= 1007 fps= 10 q=23.0 size=N/A time=00:01:40.70 bitrate=N/A dup=1 drop=0 speed=   1x elapsed=0:01:40.52    frame= 1012 fps= 10 q=23.0 size=N/A time=00:01:41.20 bitrate=N/A dup=1 drop=0 speed=   1x elapsed=0:01:41.02    frame= 1017 fps= 10 q=23.0 size=N/A time=00:01:41.70 bitrate=N/A dup=1 drop=0 speed=   1x elapsed=0:01:41.52    [hls @ 0x55a92596fac0] Opening '/home/nian/Downloads/files/hls/segment_033.ts' for writing
[hls @ 0x55a92596fac0] Opening '/home/nian/Downloads/files/hls/stream.m3u8.tmp' for writing
frame= 1022 fps= 10 q=23.0 size=N/A time=00:01:42.20 bitrate=N/A dup=1 drop=0 speed=   1x elapsed=0:01:42.02    frame= 1027 fps= 10 q=23.0 size=N/A time=00:01:42.70 bitrate=N/A dup=1 drop=0 speed=   1x elapsed=0:01:42.52    frame= 1032 fps= 10 q=23.0 size=N/A time=00:01:43.20 bitrate=N/A dup=1 drop=0 speed=   1x elapsed=0:01:43.02    frame= 1037 fps= 10 q=23.0 size=N/A time=00:01:43.70 bitrate=N/A dup=1 drop=0 speed=   1x elapsed=0:01:43.52    frame= 1042 fps= 10 q=23.0 size=N/A time=00:01:44.20 bitrate=N/A dup=1 drop=0 speed=   1x elapsed=0:01:44.02    frame= 1047 fps= 10 q=23.0 size=N/A time=00:01:44.70 bitrate=N/A dup=1 drop=0 speed=   1x elapsed=0:01:44.52    [hls @ 0x55a92596fac0] Opening '/home/nian/Downloads/files/hls/segment_034.ts' for writing
[hls @ 0x55a92596fac0] Opening '/home/nian/Downloads/files/hls/stream.m3u8.tmp' for writing
frame= 1052 fps= 10 q=23.0 size=N/A time=00:01:45.20 bitrate=N/A dup=1 drop=0 speed=   1x elapsed=0:01:45.02    frame= 1057 fps= 10 q=23.0 size=N/A time=00:01:45.70 bitrate=N/A dup=1 drop=0 speed=   1x elapsed=0:01:45.52    frame= 1062 fps= 10 q=23.0 size=N/A time=00:01:46.20 bitrate=N/A dup=1 drop=0 speed=   1x elapsed=0:01:46.02    frame= 1067 fps= 10 q=23.0 size=N/A time=00:01:46.70 bitrate=N/A dup=1 drop=0 speed=   1x elapsed=0:01:46.52    frame= 1072 fps= 10 q=23.0 size=N/A time=00:01:47.20 bitrate=N/A dup=1 drop=0 speed=   1x elapsed=0:01:47.02    frame= 1077 fps= 10 q=23.0 size=N/A time=00:01:47.70 bitrate=N/A dup=1 drop=0 speed=   1x elapsed=0:01:47.52    [hls @ 0x55a92596fac0] Opening '/home/nian/Downloads/files/hls/segment_035.ts' for writing
[hls @ 0x55a92596fac0] Opening '/home/nian/Downloads/files/hls/stream.m3u8.tmp' for writing
frame= 1082 fps= 10 q=23.0 size=N/A time=00:01:48.20 bitrate=N/A dup=1 drop=0 speed=   1x elapsed=0:01:48.02    frame= 1087 fps= 10 q=23.0 size=N/A time=00:01:48.70 bitrate=N/A dup=1 drop=0 speed=   1x elapsed=0:01:48.52    frame= 1092 fps= 10 q=23.0 size=N/A time=00:01:49.20 bitrate=N/A dup=1 drop=0 speed=   1x elapsed=0:01:49.02    frame= 1097 fps= 10 q=23.0 size=N/A time=00:01:49.70 bitrate=N/A dup=1 drop=0 speed=   1x elapsed=0:01:49.52    frame= 1102 fps= 10 q=23.0 size=N/A time=00:01:50.20 bitrate=N/A dup=1 drop=0 speed=   1x elapsed=0:01:50.02    frame= 1107 fps= 10 q=23.0 size=N/A time=00:01:50.70 bitrate=N/A dup=1 drop=0 speed=   1x elapsed=0:01:50.52    [hls @ 0x55a92596fac0] Opening '/home/nian/Downloads/files/hls/segment_036.ts' for writing
[hls @ 0x55a92596fac0] Opening '/home/nian/Downloads/files/hls/stream.m3u8.tmp' for writing
frame= 1112 fps= 10 q=23.0 size=N/A time=00:01:51.20 bitrate=N/A dup=1 drop=0 speed=   1x elapsed=0:01:51.02    frame= 1117 fps= 10 q=23.0 size=N/A time=00:01:51.70 bitrate=N/A dup=1 drop=0 speed=   1x elapsed=0:01:51.52    frame= 1122 fps= 10 q=23.0 size=N/A time=00:01:52.20 bitrate=N/A dup=1 drop=0 speed=   1x elapsed=0:01:52.02    frame= 1127 fps= 10 q=23.0 size=N/A time=00:01:52.70 bitrate=N/A dup=1 drop=0 speed=   1x elapsed=0:01:52.52    frame= 1132 fps= 10 q=23.0 size=N/A time=00:01:53.20 bitrate=N/A dup=1 drop=0 speed=   1x elapsed=0:01:53.02    frame= 1137 fps= 10 q=23.0 size=N/A time=00:01:53.70 bitrate=N/A dup=1 drop=0 speed=   1x elapsed=0:01:53.52    [hls @ 0x55a92596fac0] Opening '/home/nian/Downloads/files/hls/segment_037.ts' for writing
[hls @ 0x55a92596fac0] Opening '/home/nian/Downloads/files/hls/stream.m3u8.tmp' for writing
frame= 1142 fps= 10 q=23.0 size=N/A time=00:01:54.20 bitrate=N/A dup=1 drop=0 speed=   1x elapsed=0:01:54.02    frame= 1147 fps= 10 q=23.0 size=N/A time=00:01:54.70 bitrate=N/A dup=1 drop=0 speed=   1x elapsed=0:01:54.52    frame= 1152 fps= 10 q=23.0 size=N/A time=00:01:55.20 bitrate=N/A dup=1 drop=0 speed=   1x elapsed=0:01:55.02    frame= 1157 fps= 10 q=23.0 size=N/A time=00:01:55.70 bitrate=N/A dup=1 drop=0 speed=   1x elapsed=0:01:55.52    frame= 1162 fps= 10 q=23.0 size=N/A time=00:01:56.20 bitrate=N/A dup=1 drop=0 speed=   1x elapsed=0:01:56.02    frame= 1167 fps= 10 q=23.0 size=N/A time=00:01:56.70 bitrate=N/A dup=1 drop=0 speed=   1x elapsed=0:01:56.52    [hls @ 0x55a92596fac0] Opening '/home/nian/Downloads/files/hls/segment_038.ts' for writing
[hls @ 0x55a92596fac0] Opening '/home/nian/Downloads/files/hls/stream.m3u8.tmp' for writing
frame= 1172 fps= 10 q=23.0 size=N/A time=00:01:57.20 bitrate=N/A dup=1 drop=0 speed=   1x elapsed=0:01:57.02    frame= 1177 fps= 10 q=23.0 size=N/A time=00:01:57.70 bitrate=N/A dup=1 drop=0 speed=   1x elapsed=0:01:57.52    frame= 1182 fps= 10 q=23.0 size=N/A time=00:01:58.20 bitrate=N/A dup=1 drop=0 speed=   1x elapsed=0:01:58.02    frame= 1187 fps= 10 q=23.0 size=N/A time=00:01:58.70 bitrate=N/A dup=1 drop=0 speed=   1x elapsed=0:01:58.52    frame= 1192 fps= 10 q=23.0 size=N/A time=00:01:59.20 bitrate=N/A dup=1 drop=0 speed=   1x elapsed=0:01:59.02    frame= 1197 fps= 10 q=23.0 size=N/A time=00:01:59.70 bitrate=N/A dup=1 drop=0 speed=   1x elapsed=0:01:59.52    [hls @ 0x55a92596fac0] Opening '/home/nian/Downloads/files/hls/segment_039.ts' for writing
[hls @ 0x55a92596fac0] Opening '/home/nian/Downloads/files/hls/stream.m3u8.tmp' for writing
frame= 1202 fps= 10 q=23.0 size=N/A time=00:02:00.20 bitrate=N/A dup=1 drop=0 speed=   1x elapsed=0:02:00.02    frame= 1207 fps= 10 q=23.0 size=N/A time=00:02:00.70 bitrate=N/A dup=1 drop=0 speed=   1x elapsed=0:02:00.52    frame= 1212 fps= 10 q=23.0 size=N/A time=00:02:01.20 bitrate=N/A dup=1 drop=0 speed=   1x elapsed=0:02:01.02    frame= 1217 fps= 10 q=23.0 size=N/A time=00:02:01.70 bitrate=N/A dup=1 drop=0 speed=   1x elapsed=0:02:01.52    frame= 1222 fps= 10 q=23.0 size=N/A time=00:02:02.20 bitrate=N/A dup=1 drop=0 speed=   1x elapsed=0:02:02.02    frame= 1227 fps= 10 q=23.0 size=N/A time=00:02:02.70 bitrate=N/A dup=1 drop=0 speed=   1x elapsed=0:02:02.53    [hls @ 0x55a92596fac0] Opening '/home/nian/Downloads/files/hls/segment_040.ts' for writing
[hls @ 0x55a92596fac0] Opening '/home/nian/Downloads/files/hls/stream.m3u8.tmp' for writing
frame= 1232 fps= 10 q=23.0 size=N/A time=00:02:03.20 bitrate=N/A dup=1 drop=0 speed=   1x elapsed=0:02:03.03    frame= 1237 fps= 10 q=23.0 size=N/A time=00:02:03.70 bitrate=N/A dup=1 drop=0 speed=   1x elapsed=0:02:03.53    frame= 1242 fps= 10 q=23.0 size=N/A time=00:02:04.20 bitrate=N/A dup=1 drop=0 speed=   1x elapsed=0:02:04.03    frame= 1247 fps= 10 q=23.0 size=N/A time=00:02:04.70 bitrate=N/A dup=1 drop=0 speed=   1x elapsed=0:02:04.53    frame= 1252 fps= 10 q=23.0 size=N/A time=00:02:05.20 bitrate=N/A dup=1 drop=0 speed=   1x elapsed=0:02:05.03    frame= 1257 fps= 10 q=23.0 size=N/A time=00:02:05.70 bitrate=N/A dup=1 drop=0 speed=   1x elapsed=0:02:05.53    [hls @ 0x55a92596fac0] Opening '/home/nian/Downloads/files/hls/segment_041.ts' for writing
[hls @ 0x55a92596fac0] Opening '/home/nian/Downloads/files/hls/stream.m3u8.tmp' for writing
frame= 1262 fps= 10 q=23.0 size=N/A time=00:02:06.20 bitrate=N/A dup=1 drop=0 speed=   1x elapsed=0:02:06.03    frame= 1267 fps= 10 q=23.0 size=N/A time=00:02:06.70 bitrate=N/A dup=1 drop=0 speed=   1x elapsed=0:02:06.53    frame= 1272 fps= 10 q=23.0 size=N/A time=00:02:07.20 bitrate=N/A dup=1 drop=0 speed=   1x elapsed=0:02:07.03    frame= 1277 fps= 10 q=23.0 size=N/A time=00:02:07.70 bitrate=N/A dup=1 drop=0 speed=   1x elapsed=0:02:07.53    frame= 1282 fps= 10 q=23.0 size=N/A time=00:02:08.20 bitrate=N/A dup=1 drop=0 speed=   1x elapsed=0:02:08.03    frame= 1287 fps= 10 q=23.0 size=N/A time=00:02:08.70 bitrate=N/A dup=1 drop=0 speed=   1x elapsed=0:02:08.53    [hls @ 0x55a92596fac0] Opening '/home/nian/Downloads/files/hls/segment_042.ts' for writing
[hls @ 0x55a92596fac0] Opening '/home/nian/Downloads/files/hls/stream.m3u8.tmp' for writing
frame= 1292 fps= 10 q=23.0 size=N/A time=00:02:09.20 bitrate=N/A dup=1 drop=0 speed=   1x elapsed=0:02:09.03    frame= 1297 fps= 10 q=23.0 size=N/A time=00:02:09.70 bitrate=N/A dup=1 drop=0 speed=   1x elapsed=0:02:09.53    frame= 1302 fps= 10 q=23.0 size=N/A time=00:02:10.20 bitrate=N/A dup=1 drop=0 speed=   1x elapsed=0:02:10.03    frame= 1307 fps= 10 q=23.0 size=N/A time=00:02:10.70 bitrate=N/A dup=1 drop=0 speed=   1x elapsed=0:02:10.53    frame= 1312 fps= 10 q=23.0 size=N/A time=00:02:11.20 bitrate=N/A dup=1 drop=0 speed=   1x elapsed=0:02:11.03    frame= 1317 fps= 10 q=23.0 size=N/A time=00:02:11.70 bitrate=N/A dup=1 drop=0 speed=   1x elapsed=0:02:11.53    [hls @ 0x55a92596fac0] Opening '/home/nian/Downloads/files/hls/segment_043.ts' for writing
[hls @ 0x55a92596fac0] Opening '/home/nian/Downloads/files/hls/stream.m3u8.tmp' for writing
frame= 1322 fps= 10 q=23.0 size=N/A time=00:02:12.20 bitrate=N/A dup=1 drop=0 speed=   1x elapsed=0:02:12.03    frame= 1327 fps= 10 q=23.0 size=N/A time=00:02:12.70 bitrate=N/A dup=1 drop=0 speed=   1x elapsed=0:02:12.53    frame= 1332 fps= 10 q=23.0 size=N/A time=00:02:13.20 bitrate=N/A dup=1 drop=0 speed=   1x elapsed=0:02:13.03    frame= 1337 fps= 10 q=23.0 size=N/A time=00:02:13.70 bitrate=N/A dup=1 drop=0 speed=   1x elapsed=0:02:13.53    frame= 1342 fps= 10 q=23.0 size=N/A time=00:02:14.20 bitrate=N/A dup=1 drop=0 speed=   1x elapsed=0:02:14.03    frame= 1347 fps= 10 q=23.0 size=N/A time=00:02:14.70 bitrate=N/A dup=1 drop=0 speed=   1x elapsed=0:02:14.53    [hls @ 0x55a92596fac0] Opening '/home/nian/Downloads/files/hls/segment_044.ts' for writing
[hls @ 0x55a92596fac0] Opening '/home/nian/Downloads/files/hls/stream.m3u8.tmp' for writing
frame= 1352 fps= 10 q=23.0 size=N/A time=00:02:15.20 bitrate=N/A dup=1 drop=0 speed=   1x elapsed=0:02:15.03    frame= 1357 fps= 10 q=23.0 size=N/A time=00:02:15.70 bitrate=N/A dup=1 drop=0 speed=   1x elapsed=0:02:15.53    frame= 1362 fps= 10 q=23.0 size=N/A time=00:02:16.20 bitrate=N/A dup=1 drop=0 speed=   1x elapsed=0:02:16.03    frame= 1367 fps= 10 q=23.0 size=N/A time=00:02:16.70 bitrate=N/A dup=1 drop=0 speed=   1x elapsed=0:02:16.53    frame= 1372 fps= 10 q=23.0 size=N/A time=00:02:17.20 bitrate=N/A dup=1 drop=0 speed=   1x elapsed=0:02:17.03    frame= 1377 fps= 10 q=23.0 size=N/A time=00:02:17.70 bitrate=N/A dup=1 drop=0 speed=   1x elapsed=0:02:17.53    [hls @ 0x55a92596fac0] Opening '/home/nian/Downloads/files/hls/segment_045.ts' for writing
[hls @ 0x55a92596fac0] Opening '/home/nian/Downloads/files/hls/stream.m3u8.tmp' for writing
frame= 1382 fps= 10 q=23.0 size=N/A time=00:02:18.20 bitrate=N/A dup=1 drop=0 speed=   1x elapsed=0:02:18.03    frame= 1387 fps= 10 q=23.0 size=N/A time=00:02:18.70 bitrate=N/A dup=1 drop=0 speed=   1x elapsed=0:02:18.53    frame= 1392 fps= 10 q=23.0 size=N/A time=00:02:19.20 bitrate=N/A dup=1 drop=0 speed=   1x elapsed=0:02:19.03    frame= 1397 fps= 10 q=23.0 size=N/A time=00:02:19.70 bitrate=N/A dup=1 drop=0 speed=   1x elapsed=0:02:19.53    frame= 1402 fps= 10 q=23.0 size=N/A time=00:02:20.20 bitrate=N/A dup=1 drop=0 speed=   1x elapsed=0:02:20.03    frame= 1407 fps= 10 q=23.0 size=N/A time=00:02:20.70 bitrate=N/A dup=1 drop=0 speed=   1x elapsed=0:02:20.53    [hls @ 0x55a92596fac0] Opening '/home/nian/Downloads/files/hls/segment_046.ts' for writing
[hls @ 0x55a92596fac0] Opening '/home/nian/Downloads/files/hls/stream.m3u8.tmp' for writing
frame= 1412 fps= 10 q=23.0 size=N/A time=00:02:21.20 bitrate=N/A dup=1 drop=0 speed=   1x elapsed=0:02:21.03    frame= 1417 fps= 10 q=23.0 size=N/A time=00:02:21.70 bitrate=N/A dup=1 drop=0 speed=   1x elapsed=0:02:21.53    frame= 1422 fps= 10 q=23.0 size=N/A time=00:02:22.20 bitrate=N/A dup=1 drop=0 speed=   1x elapsed=0:02:22.03    frame= 1427 fps= 10 q=23.0 size=N/A time=00:02:22.70 bitrate=N/A dup=1 drop=0 speed=   1x elapsed=0:02:22.53    frame= 1432 fps= 10 q=23.0 size=N/A time=00:02:23.20 bitrate=N/A dup=1 drop=0 speed=   1x elapsed=0:02:23.03    frame= 1437 fps= 10 q=23.0 size=N/A time=00:02:23.70 bitrate=N/A dup=1 drop=0 speed=   1x elapsed=0:02:23.53    [hls @ 0x55a92596fac0] Opening '/home/nian/Downloads/files/hls/segment_047.ts' for writing
[hls @ 0x55a92596fac0] Opening '/home/nian/Downloads/files/hls/stream.m3u8.tmp' for writing
frame= 1442 fps= 10 q=23.0 size=N/A time=00:02:24.20 bitrate=N/A dup=1 drop=0 speed=   1x elapsed=0:02:24.03    frame= 1447 fps= 10 q=23.0 size=N/A time=00:02:24.70 bitrate=N/A dup=1 drop=0 speed=   1x elapsed=0:02:24.53    frame= 1452 fps= 10 q=23.0 size=N/A time=00:02:25.20 bitrate=N/A dup=1 drop=0 speed=   1x elapsed=0:02:25.03    frame= 1457 fps= 10 q=23.0 size=N/A time=00:02:25.70 bitrate=N/A dup=1 drop=0 speed=   1x elapsed=0:02:25.53    frame= 1462 fps= 10 q=23.0 size=N/A time=00:02:26.20 bitrate=N/A dup=1 drop=0 speed=   1x elapsed=0:02:26.03    frame= 1467 fps= 10 q=23.0 size=N/A time=00:02:26.70 bitrate=N/A dup=1 drop=0 speed=   1x elapsed=0:02:26.53    [hls @ 0x55a92596fac0] Opening '/home/nian/Downloads/files/hls/segment_048.ts' for writing
[hls @ 0x55a92596fac0] Opening '/home/nian/Downloads/files/hls/stream.m3u8.tmp' for writing
frame= 1472 fps= 10 q=23.0 size=N/A time=00:02:27.20 bitrate=N/A dup=1 drop=0 speed=   1x elapsed=0:02:27.03    frame= 1477 fps= 10 q=23.0 size=N/A time=00:02:27.70 bitrate=N/A dup=1 drop=0 speed=   1x elapsed=0:02:27.53    frame= 1482 fps= 10 q=23.0 size=N/A time=00:02:28.20 bitrate=N/A dup=1 drop=0 speed=   1x elapsed=0:02:28.03    frame= 1487 fps= 10 q=23.0 size=N/A time=00:02:28.70 bitrate=N/A dup=1 drop=0 speed=   1x elapsed=0:02:28.53    frame= 1492 fps= 10 q=23.0 size=N/A time=00:02:29.20 bitrate=N/A dup=1 drop=0 speed=   1x elapsed=0:02:29.03    frame= 1497 fps= 10 q=23.0 size=N/A time=00:02:29.70 bitrate=N/A dup=1 drop=0 speed=   1x elapsed=0:02:29.53    [hls @ 0x55a92596fac0] Opening '/home/nian/Downloads/files/hls/segment_049.ts' for writing
[hls @ 0x55a92596fac0] Opening '/home/nian/Downloads/files/hls/stream.m3u8.tmp' for writing
frame= 1502 fps= 10 q=23.0 size=N/A time=00:02:30.20 bitrate=N/A dup=1 drop=0 speed=   1x elapsed=0:02:30.03    frame= 1507 fps= 10 q=23.0 size=N/A time=00:02:30.70 bitrate=N/A dup=1 drop=0 speed=   1x elapsed=0:02:30.53    frame= 1512 fps= 10 q=23.0 size=N/A time=00:02:31.20 bitrate=N/A dup=1 drop=0 speed=   1x elapsed=0:02:31.03    frame= 1517 fps= 10 q=23.0 size=N/A time=00:02:31.70 bitrate=N/A dup=1 drop=0 speed=   1x elapsed=0:02:31.53    frame= 1522 fps= 10 q=23.0 size=N/A time=00:02:32.20 bitrate=N/A dup=1 drop=0 speed=   1x elapsed=0:02:32.03    frame= 1527 fps= 10 q=23.0 size=N/A time=00:02:32.70 bitrate=N/A dup=1 drop=0 speed=   1x elapsed=0:02:32.53    [hls @ 0x55a92596fac0] Opening '/home/nian/Downloads/files/hls/segment_050.ts' for writing
[hls @ 0x55a92596fac0] Opening '/home/nian/Downloads/files/hls/stream.m3u8.tmp' for writing
frame= 1532 fps= 10 q=23.0 size=N/A time=00:02:33.20 bitrate=N/A dup=1 drop=0 speed=   1x elapsed=0:02:33.03    frame= 1537 fps= 10 q=23.0 size=N/A time=00:02:33.70 bitrate=N/A dup=1 drop=0 speed=   1x elapsed=0:02:33.53    frame= 1542 fps= 10 q=23.0 size=N/A time=00:02:34.20 bitrate=N/A dup=1 drop=0 speed=   1x elapsed=0:02:34.03    frame= 1547 fps= 10 q=23.0 size=N/A time=00:02:34.70 bitrate=N/A dup=1 drop=0 speed=   1x elapsed=0:02:34.53    frame= 1552 fps= 10 q=23.0 size=N/A time=00:02:35.20 bitrate=N/A dup=1 drop=0 speed=   1x elapsed=0:02:35.03    frame= 1557 fps= 10 q=23.0 size=N/A time=00:02:35.70 bitrate=N/A dup=1 drop=0 speed=   1x elapsed=0:02:35.53    [hls @ 0x55a92596fac0] Opening '/home/nian/Downloads/files/hls/segment_051.ts' for writing
[hls @ 0x55a92596fac0] Opening '/home/nian/Downloads/files/hls/stream.m3u8.tmp' for writing
frame= 1562 fps= 10 q=23.0 size=N/A time=00:02:36.20 bitrate=N/A dup=1 drop=0 speed=   1x elapsed=0:02:36.03    frame= 1567 fps= 10 q=23.0 size=N/A time=00:02:36.70 bitrate=N/A dup=1 drop=0 speed=   1x elapsed=0:02:36.53    frame= 1572 fps= 10 q=23.0 size=N/A time=00:02:37.20 bitrate=N/A dup=1 drop=0 speed=   1x elapsed=0:02:37.03    frame= 1577 fps= 10 q=23.0 size=N/A time=00:02:37.70 bitrate=N/A dup=1 drop=0 speed=   1x elapsed=0:02:37.53    frame= 1582 fps= 10 q=23.0 size=N/A time=00:02:38.20 bitrate=N/A dup=1 drop=0 speed=   1x elapsed=0:02:38.03    frame= 1587 fps= 10 q=23.0 size=N/A time=00:02:38.70 bitrate=N/A dup=1 drop=0 speed=   1x elapsed=0:02:38.53    [hls @ 0x55a92596fac0] Opening '/home/nian/Downloads/files/hls/segment_052.ts' for writing
[hls @ 0x55a92596fac0] Opening '/home/nian/Downloads/files/hls/stream.m3u8.tmp' for writing
frame= 1592 fps= 10 q=23.0 size=N/A time=00:02:39.20 bitrate=N/A dup=1 drop=0 speed=   1x elapsed=0:02:39.03    frame= 1597 fps= 10 q=23.0 size=N/A time=00:02:39.70 bitrate=N/A dup=1 drop=0 speed=   1x elapsed=0:02:39.53    frame= 1602 fps= 10 q=23.0 size=N/A time=00:02:40.20 bitrate=N/A dup=1 drop=0 speed=   1x elapsed=0:02:40.03    frame= 1607 fps= 10 q=23.0 size=N/A time=00:02:40.70 bitrate=N/A dup=1 drop=0 speed=   1x elapsed=0:02:40.53    frame= 1612 fps= 10 q=23.0 size=N/A time=00:02:41.20 bitrate=N/A dup=1 drop=0 speed=   1x elapsed=0:02:41.03    frame= 1617 fps= 10 q=23.0 size=N/A time=00:02:41.70 bitrate=N/A dup=1 drop=0 speed=   1x elapsed=0:02:41.53    [hls @ 0x55a92596fac0] Opening '/home/nian/Downloads/files/hls/segment_053.ts' for writing
[hls @ 0x55a92596fac0] Opening '/home/nian/Downloads/files/hls/stream.m3u8.tmp' for writing
frame= 1622 fps= 10 q=23.0 size=N/A time=00:02:42.20 bitrate=N/A dup=1 drop=0 speed=   1x elapsed=0:02:42.03    frame= 1627 fps= 10 q=23.0 size=N/A time=00:02:42.70 bitrate=N/A dup=1 drop=0 speed=   1x elapsed=0:02:42.53    frame= 1632 fps= 10 q=23.0 size=N/A time=00:02:43.20 bitrate=N/A dup=1 drop=0 speed=   1x elapsed=0:02:43.03    frame= 1637 fps= 10 q=23.0 size=N/A time=00:02:43.70 bitrate=N/A dup=1 drop=0 speed=   1x elapsed=0:02:43.53    frame= 1642 fps= 10 q=23.0 size=N/A time=00:02:44.20 bitrate=N/A dup=1 drop=0 speed=   1x elapsed=0:02:44.04    frame= 1647 fps= 10 q=23.0 size=N/A time=00:02:44.70 bitrate=N/A dup=1 drop=0 speed=   1x elapsed=0:02:44.54    [hls @ 0x55a92596fac0] Opening '/home/nian/Downloads/files/hls/segment_054.ts' for writing
[hls @ 0x55a92596fac0] Opening '/home/nian/Downloads/files/hls/stream.m3u8.tmp' for writing
frame= 1652 fps= 10 q=23.0 size=N/A time=00:02:45.20 bitrate=N/A dup=1 drop=0 speed=   1x elapsed=0:02:45.04    frame= 1657 fps= 10 q=23.0 size=N/A time=00:02:45.70 bitrate=N/A dup=1 drop=0 speed=   1x elapsed=0:02:45.54    frame= 1662 fps= 10 q=23.0 size=N/A time=00:02:46.20 bitrate=N/A dup=1 drop=0 speed=   1x elapsed=0:02:46.04    frame= 1667 fps= 10 q=23.0 size=N/A time=00:02:46.70 bitrate=N/A dup=1 drop=0 speed=   1x elapsed=0:02:46.54    frame= 1672 fps= 10 q=23.0 size=N/A time=00:02:47.20 bitrate=N/A dup=1 drop=0 speed=   1x elapsed=0:02:47.04    frame= 1677 fps= 10 q=23.0 size=N/A time=00:02:47.70 bitrate=N/A dup=1 drop=0 speed=   1x elapsed=0:02:47.54    [hls @ 0x55a92596fac0] Opening '/home/nian/Downloads/files/hls/segment_055.ts' for writing
[hls @ 0x55a92596fac0] Opening '/home/nian/Downloads/files/hls/stream.m3u8.tmp' for writing
frame= 1682 fps= 10 q=23.0 size=N/A time=00:02:48.20 bitrate=N/A dup=1 drop=0 speed=   1x elapsed=0:02:48.04    frame= 1687 fps= 10 q=23.0 size=N/A time=00:02:48.70 bitrate=N/A dup=1 drop=0 speed=   1x elapsed=0:02:48.54    frame= 1692 fps= 10 q=23.0 size=N/A time=00:02:49.20 bitrate=N/A dup=1 drop=0 speed=   1x elapsed=0:02:49.04    frame= 1697 fps= 10 q=23.0 size=N/A time=00:02:49.70 bitrate=N/A dup=1 drop=0 speed=   1x elapsed=0:02:49.54    frame= 1702 fps= 10 q=23.0 size=N/A time=00:02:50.20 bitrate=N/A dup=1 drop=0 speed=   1x elapsed=0:02:50.04    frame= 1707 fps= 10 q=23.0 size=N/A time=00:02:50.70 bitrate=N/A dup=1 drop=0 speed=   1x elapsed=0:02:50.54    [hls @ 0x55a92596fac0] Opening '/home/nian/Downloads/files/hls/segment_056.ts' for writing
[hls @ 0x55a92596fac0] Opening '/home/nian/Downloads/files/hls/stream.m3u8.tmp' for writing
frame= 1712 fps= 10 q=23.0 size=N/A time=00:02:51.20 bitrate=N/A dup=1 drop=0 speed=   1x elapsed=0:02:51.04    frame= 1717 fps= 10 q=23.0 size=N/A time=00:02:51.70 bitrate=N/A dup=1 drop=0 speed=   1x elapsed=0:02:51.54    frame= 1722 fps= 10 q=23.0 size=N/A time=00:02:52.20 bitrate=N/A dup=1 drop=0 speed=   1x elapsed=0:02:52.04    frame= 1727 fps= 10 q=23.0 size=N/A time=00:02:52.70 bitrate=N/A dup=1 drop=0 speed=   1x elapsed=0:02:52.54    frame= 1732 fps= 10 q=23.0 size=N/A time=00:02:53.20 bitrate=N/A dup=1 drop=0 speed=   1x elapsed=0:02:53.04    frame= 1737 fps= 10 q=23.0 size=N/A time=00:02:53.70 bitrate=N/A dup=1 drop=0 speed=   1x elapsed=0:02:53.54    [hls @ 0x55a92596fac0] Opening '/home/nian/Downloads/files/hls/segment_057.ts' for writing
[hls @ 0x55a92596fac0] Opening '/home/nian/Downloads/files/hls/stream.m3u8.tmp' for writing
frame= 1742 fps= 10 q=23.0 size=N/A time=00:02:54.20 bitrate=N/A dup=1 drop=0 speed=   1x elapsed=0:02:54.04    frame= 1747 fps= 10 q=23.0 size=N/A time=00:02:54.70 bitrate=N/A dup=1 drop=0 speed=   1x elapsed=0:02:54.54    frame= 1752 fps= 10 q=23.0 size=N/A time=00:02:55.20 bitrate=N/A dup=1 drop=0 speed=   1x elapsed=0:02:55.04    frame= 1757 fps= 10 q=23.0 size=N/A time=00:02:55.70 bitrate=N/A dup=1 drop=0 speed=   1x elapsed=0:02:55.54    frame= 1762 fps= 10 q=23.0 size=N/A time=00:02:56.20 bitrate=N/A dup=1 drop=0 speed=   1x elapsed=0:02:56.04    frame= 1767 fps= 10 q=23.0 size=N/A time=00:02:56.70 bitrate=N/A dup=1 drop=0 speed=   1x elapsed=0:02:56.54    [hls @ 0x55a92596fac0] Opening '/home/nian/Downloads/files/hls/segment_058.ts' for writing
[hls @ 0x55a92596fac0] Opening '/home/nian/Downloads/files/hls/stream.m3u8.tmp' for writing
frame= 1772 fps= 10 q=23.0 size=N/A time=00:02:57.20 bitrate=N/A dup=1 drop=0 speed=   1x elapsed=0:02:57.04    frame= 1777 fps= 10 q=23.0 size=N/A time=00:02:57.70 bitrate=N/A dup=1 drop=0 speed=   1x elapsed=0:02:57.54    frame= 1782 fps= 10 q=23.0 size=N/A time=00:02:58.20 bitrate=N/A dup=1 drop=0 speed=   1x elapsed=0:02:58.04    frame= 1787 fps= 10 q=23.0 size=N/A time=00:02:58.70 bitrate=N/A dup=1 drop=0 speed=   1x elapsed=0:02:58.54    frame= 1792 fps= 10 q=23.0 size=N/A time=00:02:59.20 bitrate=N/A dup=1 drop=0 speed=   1x elapsed=0:02:59.04    frame= 1797 fps= 10 q=23.0 size=N/A time=00:02:59.70 bitrate=N/A dup=1 drop=0 speed=   1x elapsed=0:02:59.54    [hls @ 0x55a92596fac0] Opening '/home/nian/Downloads/files/hls/segment_059.ts' for writing
[hls @ 0x55a92596fac0] Opening '/home/nian/Downloads/files/hls/stream.m3u8.tmp' for writing
frame= 1802 fps= 10 q=23.0 size=N/A time=00:03:00.20 bitrate=N/A dup=1 drop=0 speed=   1x elapsed=0:03:00.04    frame= 1807 fps= 10 q=23.0 size=N/A time=00:03:00.70 bitrate=N/A dup=1 drop=0 speed=   1x elapsed=0:03:00.54    frame= 1812 fps= 10 q=23.0 size=N/A time=00:03:01.20 bitrate=N/A dup=1 drop=0 speed=   1x elapsed=0:03:01.04    frame= 1817 fps= 10 q=23.0 size=N/A time=00:03:01.70 bitrate=N/A dup=1 drop=0 speed=   1x elapsed=0:03:01.54    frame= 1822 fps= 10 q=23.0 size=N/A time=00:03:02.20 bitrate=N/A dup=1 drop=0 speed=   1x elapsed=0:03:02.04    frame= 1827 fps= 10 q=23.0 size=N/A time=00:03:02.70 bitrate=N/A dup=1 drop=0 speed=   1x elapsed=0:03:02.54    [hls @ 0x55a92596fac0] Opening '/home/nian/Downloads/files/hls/segment_060.ts' for writing
[hls @ 0x55a92596fac0] Opening '/home/nian/Downloads/files/hls/stream.m3u8.tmp' for writing
frame= 1832 fps= 10 q=23.0 size=N/A time=00:03:03.20 bitrate=N/A dup=1 drop=0 speed=   1x elapsed=0:03:03.04    frame= 1837 fps= 10 q=23.0 size=N/A time=00:03:03.70 bitrate=N/A dup=1 drop=0 speed=   1x elapsed=0:03:03.54    frame= 1842 fps= 10 q=23.0 size=N/A time=00:03:04.20 bitrate=N/A dup=1 drop=0 speed=   1x elapsed=0:03:04.04    frame= 1847 fps= 10 q=23.0 size=N/A time=00:03:04.70 bitrate=N/A dup=1 drop=0 speed=   1x elapsed=0:03:04.54    frame= 1852 fps= 10 q=23.0 size=N/A time=00:03:05.20 bitrate=N/A dup=1 drop=0 speed=   1x elapsed=0:03:05.04    frame= 1857 fps= 10 q=23.0 size=N/A time=00:03:05.70 bitrate=N/A dup=1 drop=0 speed=   1x elapsed=0:03:05.54    [hls @ 0x55a92596fac0] Opening '/home/nian/Downloads/files/hls/segment_061.ts' for writing
[hls @ 0x55a92596fac0] Opening '/home/nian/Downloads/files/hls/stream.m3u8.tmp' for writing
frame= 1862 fps= 10 q=23.0 size=N/A time=00:03:06.20 bitrate=N/A dup=1 drop=0 speed=   1x elapsed=0:03:06.05    frame= 1867 fps= 10 q=23.0 size=N/A time=00:03:06.70 bitrate=N/A dup=1 drop=0 speed=   1x elapsed=0:03:06.55    frame= 1872 fps= 10 q=23.0 size=N/A time=00:03:07.20 bitrate=N/A dup=1 drop=0 speed=   1x elapsed=0:03:07.05    frame= 1877 fps= 10 q=23.0 size=N/A time=00:03:07.70 bitrate=N/A dup=1 drop=0 speed=   1x elapsed=0:03:07.55    frame= 1882 fps= 10 q=23.0 size=N/A time=00:03:08.20 bitrate=N/A dup=1 drop=0 speed=   1x elapsed=0:03:08.05    frame= 1887 fps= 10 q=23.0 size=N/A time=00:03:08.70 bitrate=N/A dup=1 drop=0 speed=   1x elapsed=0:03:08.55    [hls @ 0x55a92596fac0] Opening '/home/nian/Downloads/files/hls/segment_062.ts' for writing
[hls @ 0x55a92596fac0] Opening '/home/nian/Downloads/files/hls/stream.m3u8.tmp' for writing
frame= 1892 fps= 10 q=23.0 size=N/A time=00:03:09.20 bitrate=N/A dup=1 drop=0 speed=   1x elapsed=0:03:09.05    frame= 1897 fps= 10 q=23.0 size=N/A time=00:03:09.70 bitrate=N/A dup=1 drop=0 speed=   1x elapsed=0:03:09.55    frame= 1902 fps= 10 q=23.0 size=N/A time=00:03:10.20 bitrate=N/A dup=1 drop=0 speed=   1x elapsed=0:03:10.05    frame= 1907 fps= 10 q=23.0 size=N/A time=00:03:10.70 bitrate=N/A dup=1 drop=0 speed=   1x elapsed=0:03:10.55    frame= 1912 fps= 10 q=23.0 size=N/A time=00:03:11.20 bitrate=N/A dup=1 drop=0 speed=   1x elapsed=0:03:11.05    frame= 1917 fps= 10 q=23.0 size=N/A time=00:03:11.70 bitrate=N/A dup=1 drop=0 speed=   1x elapsed=0:03:11.55    [hls @ 0x55a92596fac0] Opening '/home/nian/Downloads/files/hls/segment_063.ts' for writing
[hls @ 0x55a92596fac0] Opening '/home/nian/Downloads/files/hls/stream.m3u8.tmp' for writing
frame= 1922 fps= 10 q=23.0 size=N/A time=00:03:12.20 bitrate=N/A dup=1 drop=0 speed=   1x elapsed=0:03:12.05    frame= 1927 fps= 10 q=23.0 size=N/A time=00:03:12.70 bitrate=N/A dup=1 drop=0 speed=   1x elapsed=0:03:12.55    frame= 1932 fps= 10 q=23.0 size=N/A time=00:03:13.20 bitrate=N/A dup=1 drop=0 speed=   1x elapsed=0:03:13.05    frame= 1937 fps= 10 q=23.0 size=N/A time=00:03:13.70 bitrate=N/A dup=1 drop=0 speed=   1x elapsed=0:03:13.55    frame= 1942 fps= 10 q=23.0 size=N/A time=00:03:14.20 bitrate=N/A dup=1 drop=0 speed=   1x elapsed=0:03:14.05    frame= 1947 fps= 10 q=23.0 size=N/A time=00:03:14.70 bitrate=N/A dup=1 drop=0 speed=   1x elapsed=0:03:14.55    [hls @ 0x55a92596fac0] Opening '/home/nian/Downloads/files/hls/segment_064.ts' for writing
[hls @ 0x55a92596fac0] Opening '/home/nian/Downloads/files/hls/stream.m3u8.tmp' for writing
frame= 1952 fps= 10 q=23.0 size=N/A time=00:03:15.20 bitrate=N/A dup=1 drop=0 speed=   1x elapsed=0:03:15.05    frame= 1957 fps= 10 q=23.0 size=N/A time=00:03:15.70 bitrate=N/A dup=1 drop=0 speed=   1x elapsed=0:03:15.55    frame= 1962 fps= 10 q=23.0 size=N/A time=00:03:16.20 bitrate=N/A dup=1 drop=0 speed=   1x elapsed=0:03:16.05    frame= 1967 fps= 10 q=23.0 size=N/A time=00:03:16.70 bitrate=N/A dup=1 drop=0 speed=   1x elapsed=0:03:16.55    frame= 1972 fps= 10 q=23.0 size=N/A time=00:03:17.20 bitrate=N/A dup=1 drop=0 speed=   1x elapsed=0:03:17.05    frame= 1977 fps= 10 q=23.0 size=N/A time=00:03:17.70 bitrate=N/A dup=1 drop=0 speed=   1x elapsed=0:03:17.55    [hls @ 0x55a92596fac0] Opening '/home/nian/Downloads/files/hls/segment_065.ts' for writing
[hls @ 0x55a92596fac0] Opening '/home/nian/Downloads/files/hls/stream.m3u8.tmp' for writing
frame= 1982 fps= 10 q=23.0 size=N/A time=00:03:18.20 bitrate=N/A dup=1 drop=0 speed=   1x elapsed=0:03:18.05    frame= 1987 fps= 10 q=23.0 size=N/A time=00:03:18.70 bitrate=N/A dup=1 drop=0 speed=   1x elapsed=0:03:18.55    frame= 1992 fps= 10 q=23.0 size=N/A time=00:03:19.20 bitrate=N/A dup=1 drop=0 speed=   1x elapsed=0:03:19.05    frame= 1997 fps= 10 q=23.0 size=N/A time=00:03:19.70 bitrate=N/A dup=1 drop=0 speed=   1x elapsed=0:03:19.55    frame= 2002 fps= 10 q=23.0 size=N/A time=00:03:20.20 bitrate=N/A dup=1 drop=0 speed=   1x elapsed=0:03:20.05    frame= 2007 fps= 10 q=23.0 size=N/A time=00:03:20.70 bitrate=N/A dup=1 drop=0 speed=   1x elapsed=0:03:20.55    [hls @ 0x55a92596fac0] Opening '/home/nian/Downloads/files/hls/segment_066.ts' for writing
[hls @ 0x55a92596fac0] Opening '/home/nian/Downloads/files/hls/stream.m3u8.tmp' for writing
frame= 2012 fps= 10 q=23.0 size=N/A time=00:03:21.20 bitrate=N/A dup=1 drop=0 speed=   1x elapsed=0:03:21.05    frame= 2017 fps= 10 q=23.0 size=N/A time=00:03:21.70 bitrate=N/A dup=1 drop=0 speed=   1x elapsed=0:03:21.55    frame= 2022 fps= 10 q=23.0 size=N/A time=00:03:22.20 bitrate=N/A dup=1 drop=0 speed=   1x elapsed=0:03:22.05    frame= 2027 fps= 10 q=23.0 size=N/A time=00:03:22.70 bitrate=N/A dup=1 drop=0 speed=   1x elapsed=0:03:22.55    frame= 2032 fps= 10 q=23.0 size=N/A time=00:03:23.20 bitrate=N/A dup=1 drop=0 speed=   1x elapsed=0:03:23.05    frame= 2037 fps= 10 q=23.0 size=N/A time=00:03:23.70 bitrate=N/A dup=1 drop=0 speed=   1x elapsed=0:03:23.55    [hls @ 0x55a92596fac0] Opening '/home/nian/Downloads/files/hls/segment_067.ts' for writing
[hls @ 0x55a92596fac0] Opening '/home/nian/Downloads/files/hls/stream.m3u8.tmp' for writing
frame= 2042 fps= 10 q=23.0 size=N/A time=00:03:24.20 bitrate=N/A dup=1 drop=0 speed=   1x elapsed=0:03:24.05    frame= 2047 fps= 10 q=23.0 size=N/A time=00:03:24.70 bitrate=N/A dup=1 drop=0 speed=   1x elapsed=0:03:24.55    frame= 2052 fps= 10 q=23.0 size=N/A time=00:03:25.20 bitrate=N/A dup=1 drop=0 speed=   1x elapsed=0:03:25.05    frame= 2057 fps= 10 q=23.0 size=N/A time=00:03:25.70 bitrate=N/A dup=1 drop=0 speed=   1x elapsed=0:03:25.55    frame= 2062 fps= 10 q=23.0 size=N/A time=00:03:26.20 bitrate=N/A dup=1 drop=0 speed=   1x elapsed=0:03:26.05    frame= 2067 fps= 10 q=23.0 size=N/A time=00:03:26.70 bitrate=N/A dup=1 drop=0 speed=   1x elapsed=0:03:26.55    [hls @ 0x55a92596fac0] Opening '/home/nian/Downloads/files/hls/segment_068.ts' for writing
[hls @ 0x55a92596fac0] Opening '/home/nian/Downloads/files/hls/stream.m3u8.tmp' for writing
frame= 2072 fps= 10 q=23.0 size=N/A time=00:03:27.20 bitrate=N/A dup=1 drop=0 speed=   1x elapsed=0:03:27.05    frame= 2077 fps= 10 q=23.0 size=N/A time=00:03:27.70 bitrate=N/A dup=1 drop=0 speed=   1x elapsed=0:03:27.55    frame= 2082 fps= 10 q=23.0 size=N/A time=00:03:28.20 bitrate=N/A dup=1 drop=0 speed=   1x elapsed=0:03:28.05    frame= 2087 fps= 10 q=23.0 size=N/A time=00:03:28.70 bitrate=N/A dup=1 drop=0 speed=   1x elapsed=0:03:28.55    frame= 2092 fps= 10 q=23.0 size=N/A time=00:03:29.20 bitrate=N/A dup=1 drop=0 speed=   1x elapsed=0:03:29.05    frame= 2097 fps= 10 q=23.0 size=N/A time=00:03:29.70 bitrate=N/A dup=1 drop=0 speed=   1x elapsed=0:03:29.55    [hls @ 0x55a92596fac0] Opening '/home/nian/Downloads/files/hls/segment_069.ts' for writing
[hls @ 0x55a92596fac0] Opening '/home/nian/Downloads/files/hls/stream.m3u8.tmp' for writing
frame= 2102 fps= 10 q=23.0 size=N/A time=00:03:30.20 bitrate=N/A dup=1 drop=0 speed=   1x elapsed=0:03:30.05    frame= 2107 fps= 10 q=23.0 size=N/A time=00:03:30.70 bitrate=N/A dup=1 drop=0 speed=   1x elapsed=0:03:30.55    frame= 2112 fps= 10 q=23.0 size=N/A time=00:03:31.20 bitrate=N/A dup=1 drop=0 speed=   1x elapsed=0:03:31.05    frame= 2117 fps= 10 q=23.0 size=N/A time=00:03:31.70 bitrate=N/A dup=1 drop=0 speed=   1x elapsed=0:03:31.55    frame= 2122 fps= 10 q=23.0 size=N/A time=00:03:32.20 bitrate=N/A dup=1 drop=0 speed=   1x elapsed=0:03:32.05    frame= 2127 fps= 10 q=23.0 size=N/A time=00:03:32.70 bitrate=N/A dup=1 drop=0 speed=   1x elapsed=0:03:32.55    [hls @ 0x55a92596fac0] Opening '/home/nian/Downloads/files/hls/segment_070.ts' for writing
[hls @ 0x55a92596fac0] Opening '/home/nian/Downloads/files/hls/stream.m3u8.tmp' for writing
frame= 2132 fps= 10 q=23.0 size=N/A time=00:03:33.20 bitrate=N/A dup=1 drop=0 speed=   1x elapsed=0:03:33.05    frame= 2137 fps= 10 q=23.0 size=N/A time=00:03:33.70 bitrate=N/A dup=1 drop=0 speed=   1x elapsed=0:03:33.55    frame= 2142 fps= 10 q=23.0 size=N/A time=00:03:34.20 bitrate=N/A dup=1 drop=0 speed=   1x elapsed=0:03:34.05    frame= 2147 fps= 10 q=23.0 size=N/A time=00:03:34.70 bitrate=N/A dup=1 drop=0 speed=   1x elapsed=0:03:34.55    frame= 2152 fps= 10 q=23.0 size=N/A time=00:03:35.20 bitrate=N/A dup=1 drop=0 speed=   1x elapsed=0:03:35.05    frame= 2157 fps= 10 q=23.0 size=N/A time=00:03:35.70 bitrate=N/A dup=1 drop=0 speed=   1x elapsed=0:03:35.55    [hls @ 0x55a92596fac0] Opening '/home/nian/Downloads/files/hls/segment_071.ts' for writing
[hls @ 0x55a92596fac0] Opening '/home/nian/Downloads/files/hls/stream.m3u8.tmp' for writing
frame= 2162 fps= 10 q=23.0 size=N/A time=00:03:36.20 bitrate=N/A dup=1 drop=0 speed=   1x elapsed=0:03:36.05    frame= 2167 fps= 10 q=23.0 size=N/A time=00:03:36.70 bitrate=N/A dup=1 drop=0 speed=   1x elapsed=0:03:36.55    frame= 2172 fps= 10 q=23.0 size=N/A time=00:03:37.20 bitrate=N/A dup=1 drop=0 speed=   1x elapsed=0:03:37.05    frame= 2177 fps= 10 q=23.0 size=N/A time=00:03:37.70 bitrate=N/A dup=1 drop=0 speed=   1x elapsed=0:03:37.55    frame= 2182 fps= 10 q=23.0 size=N/A time=00:03:38.20 bitrate=N/A dup=1 drop=0 speed=   1x elapsed=0:03:38.05    frame= 2187 fps= 10 q=23.0 size=N/A time=00:03:38.70 bitrate=N/A dup=1 drop=0 speed=   1x elapsed=0:03:38.55    [hls @ 0x55a92596fac0] Opening '/home/nian/Downloads/files/hls/segment_072.ts' for writing
[hls @ 0x55a92596fac0] Opening '/home/nian/Downloads/files/hls/stream.m3u8.tmp' for writing
frame= 2192 fps= 10 q=23.0 size=N/A time=00:03:39.20 bitrate=N/A dup=1 drop=0 speed=   1x elapsed=0:03:39.05    frame= 2197 fps= 10 q=23.0 size=N/A time=00:03:39.70 bitrate=N/A dup=1 drop=0 speed=   1x elapsed=0:03:39.55    frame= 2202 fps= 10 q=23.0 size=N/A time=00:03:40.20 bitrate=N/A dup=1 drop=0 speed=   1x elapsed=0:03:40.05    frame= 2207 fps= 10 q=23.0 size=N/A time=00:03:40.70 bitrate=N/A dup=1 drop=0 speed=   1x elapsed=0:03:40.55    frame= 2212 fps= 10 q=23.0 size=N/A time=00:03:41.20 bitrate=N/A dup=1 drop=0 speed=   1x elapsed=0:03:41.05    frame= 2217 fps= 10 q=23.0 size=N/A time=00:03:41.70 bitrate=N/A dup=1 drop=0 speed=   1x elapsed=0:03:41.55    [hls @ 0x55a92596fac0] Opening '/home/nian/Downloads/files/hls/segment_073.ts' for writing
[hls @ 0x55a92596fac0] Opening '/home/nian/Downloads/files/hls/stream.m3u8.tmp' for writing
frame= 2222 fps= 10 q=23.0 size=N/A time=00:03:42.20 bitrate=N/A dup=1 drop=0 speed=   1x elapsed=0:03:42.05    frame= 2227 fps= 10 q=23.0 size=N/A time=00:03:42.70 bitrate=N/A dup=1 drop=0 speed=   1x elapsed=0:03:42.55    frame= 2232 fps= 10 q=23.0 size=N/A time=00:03:43.20 bitrate=N/A dup=1 drop=0 speed=   1x elapsed=0:03:43.05    frame= 2237 fps= 10 q=23.0 size=N/A time=00:03:43.70 bitrate=N/A dup=1 drop=0 speed=   1x elapsed=0:03:43.55    frame= 2242 fps= 10 q=23.0 size=N/A time=00:03:44.20 bitrate=N/A dup=1 drop=0 speed=   1x elapsed=0:03:44.05    frame= 2247 fps= 10 q=23.0 size=N/A time=00:03:44.70 bitrate=N/A dup=1 drop=0 speed=   1x elapsed=0:03:44.55    [hls @ 0x55a92596fac0] Opening '/home/nian/Downloads/files/hls/segment_074.ts' for writing
[hls @ 0x55a92596fac0] Opening '/home/nian/Downloads/files/hls/stream.m3u8.tmp' for writing
frame= 2252 fps= 10 q=23.0 size=N/A time=00:03:45.20 bitrate=N/A dup=1 drop=0 speed=   1x elapsed=0:03:45.05    frame= 2257 fps= 10 q=23.0 size=N/A time=00:03:45.70 bitrate=N/A dup=1 drop=0 speed=   1x elapsed=0:03:45.55    frame= 2262 fps= 10 q=23.0 size=N/A time=00:03:46.20 bitrate=N/A dup=1 drop=0 speed=   1x elapsed=0:03:46.06    frame= 2267 fps= 10 q=23.0 size=N/A time=00:03:46.70 bitrate=N/A dup=1 drop=0 speed=   1x elapsed=0:03:46.56    frame= 2272 fps= 10 q=23.0 size=N/A time=00:03:47.20 bitrate=N/A dup=1 drop=0 speed=   1x elapsed=0:03:47.06    frame= 2277 fps= 10 q=23.0 size=N/A time=00:03:47.70 bitrate=N/A dup=1 drop=0 speed=   1x elapsed=0:03:47.56    [hls @ 0x55a92596fac0] Opening '/home/nian/Downloads/files/hls/segment_075.ts' for writing
[hls @ 0x55a92596fac0] Opening '/home/nian/Downloads/files/hls/stream.m3u8.tmp' for writing
frame= 2282 fps= 10 q=23.0 size=N/A time=00:03:48.20 bitrate=N/A dup=1 drop=0 speed=   1x elapsed=0:03:48.06    frame= 2287 fps= 10 q=23.0 size=N/A time=00:03:48.70 bitrate=N/A dup=1 drop=0 speed=   1x elapsed=0:03:48.56    frame= 2292 fps= 10 q=23.0 size=N/A time=00:03:49.20 bitrate=N/A dup=1 drop=0 speed=   1x elapsed=0:03:49.06    frame= 2297 fps= 10 q=23.0 size=N/A time=00:03:49.70 bitrate=N/A dup=1 drop=0 speed=   1x elapsed=0:03:49.56    frame= 2302 fps= 10 q=23.0 size=N/A time=00:03:50.20 bitrate=N/A dup=1 drop=0 speed=   1x elapsed=0:03:50.06    frame= 2307 fps= 10 q=23.0 size=N/A time=00:03:50.70 bitrate=N/A dup=1 drop=0 speed=   1x elapsed=0:03:50.56    [hls @ 0x55a92596fac0] Opening '/home/nian/Downloads/files/hls/segment_076.ts' for writing
[hls @ 0x55a92596fac0] Opening '/home/nian/Downloads/files/hls/stream.m3u8.tmp' for writing
frame= 2312 fps= 10 q=23.0 size=N/A time=00:03:51.20 bitrate=N/A dup=1 drop=0 speed=   1x elapsed=0:03:51.06    frame= 2317 fps= 10 q=23.0 size=N/A time=00:03:51.70 bitrate=N/A dup=1 drop=0 speed=   1x elapsed=0:03:51.56    frame= 2322 fps= 10 q=23.0 size=N/A time=00:03:52.20 bitrate=N/A dup=1 drop=0 speed=   1x elapsed=0:03:52.06    frame= 2327 fps= 10 q=23.0 size=N/A time=00:03:52.70 bitrate=N/A dup=1 drop=0 speed=   1x elapsed=0:03:52.56    frame= 2332 fps= 10 q=23.0 size=N/A time=00:03:53.20 bitrate=N/A dup=1 drop=0 speed=   1x elapsed=0:03:53.06    frame= 2337 fps= 10 q=23.0 size=N/A time=00:03:53.70 bitrate=N/A dup=1 drop=0 speed=   1x elapsed=0:03:53.56    [hls @ 0x55a92596fac0] Opening '/home/nian/Downloads/files/hls/segment_077.ts' for writing
[hls @ 0x55a92596fac0] Opening '/home/nian/Downloads/files/hls/stream.m3u8.tmp' for writing
frame= 2342 fps= 10 q=23.0 size=N/A time=00:03:54.20 bitrate=N/A dup=1 drop=0 speed=   1x elapsed=0:03:54.06    frame= 2347 fps= 10 q=23.0 size=N/A time=00:03:54.70 bitrate=N/A dup=1 drop=0 speed=   1x elapsed=0:03:54.56    frame= 2352 fps= 10 q=23.0 size=N/A time=00:03:55.20 bitrate=N/A dup=1 drop=0 speed=   1x elapsed=0:03:55.06    frame= 2357 fps= 10 q=23.0 size=N/A time=00:03:55.70 bitrate=N/A dup=1 drop=0 speed=   1x elapsed=0:03:55.56    frame= 2362 fps= 10 q=23.0 size=N/A time=00:03:56.20 bitrate=N/A dup=1 drop=0 speed=   1x elapsed=0:03:56.06    frame= 2367 fps= 10 q=23.0 size=N/A time=00:03:56.70 bitrate=N/A dup=1 drop=0 speed=   1x elapsed=0:03:56.56    [hls @ 0x55a92596fac0] Opening '/home/nian/Downloads/files/hls/segment_078.ts' for writing
[hls @ 0x55a92596fac0] Opening '/home/nian/Downloads/files/hls/stream.m3u8.tmp' for writing
frame= 2372 fps= 10 q=23.0 size=N/A time=00:03:57.20 bitrate=N/A dup=1 drop=0 speed=   1x elapsed=0:03:57.06    frame= 2377 fps= 10 q=23.0 size=N/A time=00:03:57.70 bitrate=N/A dup=1 drop=0 speed=   1x elapsed=0:03:57.56    frame= 2382 fps= 10 q=23.0 size=N/A time=00:03:58.20 bitrate=N/A dup=1 drop=0 speed=   1x elapsed=0:03:58.06    frame= 2387 fps= 10 q=23.0 size=N/A time=00:03:58.70 bitrate=N/A dup=1 drop=0 speed=   1x elapsed=0:03:58.56    frame= 2392 fps= 10 q=23.0 size=N/A time=00:03:59.20 bitrate=N/A dup=1 drop=0 speed=   1x elapsed=0:03:59.06    frame= 2397 fps= 10 q=23.0 size=N/A time=00:03:59.70 bitrate=N/A dup=1 drop=0 speed=   1x elapsed=0:03:59.56    [hls @ 0x55a92596fac0] Opening '/home/nian/Downloads/files/hls/segment_079.ts' for writing
[hls @ 0x55a92596fac0] Opening '/home/nian/Downloads/files/hls/stream.m3u8.tmp' for writing
frame= 2402 fps= 10 q=23.0 size=N/A time=00:04:00.20 bitrate=N/A dup=1 drop=0 speed=   1x elapsed=0:04:00.06    frame= 2407 fps= 10 q=23.0 size=N/A time=00:04:00.70 bitrate=N/A dup=1 drop=0 speed=   1x elapsed=0:04:00.56    frame= 2412 fps= 10 q=23.0 size=N/A time=00:04:01.20 bitrate=N/A dup=1 drop=0 speed=   1x elapsed=0:04:01.06    frame= 2417 fps= 10 q=23.0 size=N/A time=00:04:01.70 bitrate=N/A dup=1 drop=0 speed=   1x elapsed=0:04:01.56    frame= 2422 fps= 10 q=23.0 size=N/A time=00:04:02.20 bitrate=N/A dup=1 drop=0 speed=   1x elapsed=0:04:02.06    frame= 2427 fps= 10 q=23.0 size=N/A time=00:04:02.70 bitrate=N/A dup=1 drop=0 speed=   1x elapsed=0:04:02.56    [hls @ 0x55a92596fac0] Opening '/home/nian/Downloads/files/hls/segment_080.ts' for writing
[hls @ 0x55a92596fac0] Opening '/home/nian/Downloads/files/hls/stream.m3u8.tmp' for writing
frame= 2432 fps= 10 q=23.0 size=N/A time=00:04:03.20 bitrate=N/A dup=1 drop=0 speed=   1x elapsed=0:04:03.06    frame= 2437 fps= 10 q=23.0 size=N/A time=00:04:03.70 bitrate=N/A dup=1 drop=0 speed=   1x elapsed=0:04:03.56    frame= 2442 fps= 10 q=23.0 size=N/A time=00:04:04.20 bitrate=N/A dup=1 drop=0 speed=   1x elapsed=0:04:04.06    frame= 2447 fps= 10 q=23.0 size=N/A time=00:04:04.70 bitrate=N/A dup=1 drop=0 speed=   1x elapsed=0:04:04.56    frame= 2452 fps= 10 q=23.0 size=N/A time=00:04:05.20 bitrate=N/A dup=1 drop=0 speed=   1x elapsed=0:04:05.06    frame= 2457 fps= 10 q=23.0 size=N/A time=00:04:05.70 bitrate=N/A dup=1 drop=0 speed=   1x elapsed=0:04:05.56    [hls @ 0x55a92596fac0] Opening '/home/nian/Downloads/files/hls/segment_081.ts' for writing
[hls @ 0x55a92596fac0] Opening '/home/nian/Downloads/files/hls/stream.m3u8.tmp' for writing
frame= 2462 fps= 10 q=23.0 size=N/A time=00:04:06.20 bitrate=N/A dup=1 drop=0 speed=   1x elapsed=0:04:06.06    frame= 2467 fps= 10 q=23.0 size=N/A time=00:04:06.70 bitrate=N/A dup=1 drop=0 speed=   1x elapsed=0:04:06.56    frame= 2472 fps= 10 q=23.0 size=N/A time=00:04:07.20 bitrate=N/A dup=1 drop=0 speed=   1x elapsed=0:04:07.06    frame= 2477 fps= 10 q=23.0 size=N/A time=00:04:07.70 bitrate=N/A dup=1 drop=0 speed=   1x elapsed=0:04:07.56    frame= 2482 fps= 10 q=23.0 size=N/A time=00:04:08.20 bitrate=N/A dup=1 drop=0 speed=   1x elapsed=0:04:08.06    frame= 2487 fps= 10 q=23.0 size=N/A time=00:04:08.70 bitrate=N/A dup=1 drop=0 speed=   1x elapsed=0:04:08.56    [hls @ 0x55a92596fac0] Opening '/home/nian/Downloads/files/hls/segment_082.ts' for writing
[hls @ 0x55a92596fac0] Opening '/home/nian/Downloads/files/hls/stream.m3u8.tmp' for writing
frame= 2492 fps= 10 q=23.0 size=N/A time=00:04:09.20 bitrate=N/A dup=1 drop=0 speed=   1x elapsed=0:04:09.06    frame= 2497 fps= 10 q=23.0 size=N/A time=00:04:09.70 bitrate=N/A dup=1 drop=0 speed=   1x elapsed=0:04:09.56    frame= 2502 fps= 10 q=23.0 size=N/A time=00:04:10.20 bitrate=N/A dup=1 drop=0 speed=   1x elapsed=0:04:10.06    frame= 2507 fps= 10 q=23.0 size=N/A time=00:04:10.70 bitrate=N/A dup=1 drop=0 speed=   1x elapsed=0:04:10.56    frame= 2512 fps= 10 q=23.0 size=N/A time=00:04:11.20 bitrate=N/A dup=1 drop=0 speed=   1x elapsed=0:04:11.06    frame= 2517 fps= 10 q=23.0 size=N/A time=00:04:11.70 bitrate=N/A dup=1 drop=0 speed=   1x elapsed=0:04:11.56    [hls @ 0x55a92596fac0] Opening '/home/nian/Downloads/files/hls/segment_083.ts' for writing
[hls @ 0x55a92596fac0] Opening '/home/nian/Downloads/files/hls/stream.m3u8.tmp' for writing
frame= 2522 fps= 10 q=23.0 size=N/A time=00:04:12.20 bitrate=N/A dup=1 drop=0 speed=   1x elapsed=0:04:12.06    frame= 2527 fps= 10 q=23.0 size=N/A time=00:04:12.70 bitrate=N/A dup=1 drop=0 speed=   1x elapsed=0:04:12.56    frame= 2532 fps= 10 q=23.0 size=N/A time=00:04:13.20 bitrate=N/A dup=1 drop=0 speed=   1x elapsed=0:04:13.06    frame= 2537 fps= 10 q=23.0 size=N/A time=00:04:13.70 bitrate=N/A dup=1 drop=0 speed=   1x elapsed=0:04:13.56    frame= 2542 fps= 10 q=23.0 size=N/A time=00:04:14.20 bitrate=N/A dup=1 drop=0 speed=   1x elapsed=0:04:14.06    frame= 2547 fps= 10 q=23.0 size=N/A time=00:04:14.70 bitrate=N/A dup=1 drop=0 speed=   1x elapsed=0:04:14.56    [hls @ 0x55a92596fac0] Opening '/home/nian/Downloads/files/hls/segment_084.ts' for writing
[hls @ 0x55a92596fac0] Opening '/home/nian/Downloads/files/hls/stream.m3u8.tmp' for writing
frame= 2552 fps= 10 q=23.0 size=N/A time=00:04:15.20 bitrate=N/A dup=1 drop=0 speed=   1x elapsed=0:04:15.06    frame= 2557 fps= 10 q=23.0 size=N/A time=00:04:15.70 bitrate=N/A dup=1 drop=0 speed=   1x elapsed=0:04:15.56    frame= 2562 fps= 10 q=23.0 size=N/A time=00:04:16.20 bitrate=N/A dup=1 drop=0 speed=   1x elapsed=0:04:16.06    frame= 2567 fps= 10 q=23.0 size=N/A time=00:04:16.70 bitrate=N/A dup=1 drop=0 speed=   1x elapsed=0:04:16.56    frame= 2572 fps= 10 q=23.0 size=N/A time=00:04:17.20 bitrate=N/A dup=1 drop=0 speed=   1x elapsed=0:04:17.06    frame= 2577 fps= 10 q=23.0 size=N/A time=00:04:17.70 bitrate=N/A dup=1 drop=0 speed=   1x elapsed=0:04:17.56    [hls @ 0x55a92596fac0] Opening '/home/nian/Downloads/files/hls/segment_085.ts' for writing
[hls @ 0x55a92596fac0] Opening '/home/nian/Downloads/files/hls/stream.m3u8.tmp' for writing
frame= 2582 fps= 10 q=23.0 size=N/A time=00:04:18.20 bitrate=N/A dup=1 drop=0 speed=   1x elapsed=0:04:18.06    frame= 2587 fps= 10 q=23.0 size=N/A time=00:04:18.70 bitrate=N/A dup=1 drop=0 speed=   1x elapsed=0:04:18.56    frame= 2592 fps= 10 q=23.0 size=N/A time=00:04:19.20 bitrate=N/A dup=1 drop=0 speed=   1x elapsed=0:04:19.06    frame= 2597 fps= 10 q=23.0 size=N/A time=00:04:19.70 bitrate=N/A dup=1 drop=0 speed=   1x elapsed=0:04:19.56    frame= 2602 fps= 10 q=23.0 size=N/A time=00:04:20.20 bitrate=N/A dup=1 drop=0 speed=   1x elapsed=0:04:20.06    frame= 2607 fps= 10 q=23.0 size=N/A time=00:04:20.70 bitrate=N/A dup=1 drop=0 speed=   1x elapsed=0:04:20.56    [hls @ 0x55a92596fac0] Opening '/home/nian/Downloads/files/hls/segment_086.ts' for writing
[hls @ 0x55a92596fac0] Opening '/home/nian/Downloads/files/hls/stream.m3u8.tmp' for writing
frame= 2612 fps= 10 q=23.0 size=N/A time=00:04:21.20 bitrate=N/A dup=1 drop=0 speed=   1x elapsed=0:04:21.06    frame= 2617 fps= 10 q=23.0 size=N/A time=00:04:21.70 bitrate=N/A dup=1 drop=0 speed=   1x elapsed=0:04:21.56    frame= 2622 fps= 10 q=23.0 size=N/A time=00:04:22.20 bitrate=N/A dup=1 drop=0 speed=   1x elapsed=0:04:22.06    frame= 2627 fps= 10 q=23.0 size=N/A time=00:04:22.70 bitrate=N/A dup=1 drop=0 speed=   1x elapsed=0:04:22.56    frame= 2632 fps= 10 q=23.0 size=N/A time=00:04:23.20 bitrate=N/A dup=1 drop=0 speed=   1x elapsed=0:04:23.06    frame= 2637 fps= 10 q=23.0 size=N/A time=00:04:23.70 bitrate=N/A dup=1 drop=0 speed=   1x elapsed=0:04:23.56    [hls @ 0x55a92596fac0] Opening '/home/nian/Downloads/files/hls/segment_087.ts' for writing
[hls @ 0x55a92596fac0] Opening '/home/nian/Downloads/files/hls/stream.m3u8.tmp' for writing
frame= 2642 fps= 10 q=23.0 size=N/A time=00:04:24.20 bitrate=N/A dup=1 drop=0 speed=   1x elapsed=0:04:24.06    frame= 2647 fps= 10 q=23.0 size=N/A time=00:04:24.70 bitrate=N/A dup=1 drop=0 speed=   1x elapsed=0:04:24.56    frame= 2652 fps= 10 q=23.0 size=N/A time=00:04:25.20 bitrate=N/A dup=1 drop=0 speed=   1x elapsed=0:04:25.06    frame= 2657 fps= 10 q=23.0 size=N/A time=00:04:25.70 bitrate=N/A dup=1 drop=0 speed=   1x elapsed=0:04:25.56    frame= 2662 fps= 10 q=23.0 size=N/A time=00:04:26.20 bitrate=N/A dup=1 drop=0 speed=   1x elapsed=0:04:26.06    frame= 2667 fps= 10 q=23.0 size=N/A time=00:04:26.70 bitrate=N/A dup=1 drop=0 speed=   1x elapsed=0:04:26.56    [hls @ 0x55a92596fac0] Opening '/home/nian/Downloads/files/hls/segment_088.ts' for writing
[hls @ 0x55a92596fac0] Opening '/home/nian/Downloads/files/hls/stream.m3u8.tmp' for writing
frame= 2672 fps= 10 q=23.0 size=N/A time=00:04:27.20 bitrate=N/A dup=1 drop=0 speed=   1x elapsed=0:04:27.07    frame= 2677 fps= 10 q=23.0 size=N/A time=00:04:27.70 bitrate=N/A dup=1 drop=0 speed=   1x elapsed=0:04:27.57    frame= 2682 fps= 10 q=23.0 size=N/A time=00:04:28.20 bitrate=N/A dup=1 drop=0 speed=   1x elapsed=0:04:28.07    frame= 2687 fps= 10 q=23.0 size=N/A time=00:04:28.70 bitrate=N/A dup=1 drop=0 speed=   1x elapsed=0:04:28.57    frame= 2692 fps= 10 q=23.0 size=N/A time=00:04:29.20 bitrate=N/A dup=1 drop=0 speed=   1x elapsed=0:04:29.07    frame= 2697 fps= 10 q=23.0 size=N/A time=00:04:29.70 bitrate=N/A dup=1 drop=0 speed=   1x elapsed=0:04:29.57    [hls @ 0x55a92596fac0] Opening '/home/nian/Downloads/files/hls/segment_089.ts' for writing
[hls @ 0x55a92596fac0] Opening '/home/nian/Downloads/files/hls/stream.m3u8.tmp' for writing
frame= 2702 fps= 10 q=23.0 size=N/A time=00:04:30.20 bitrate=N/A dup=1 drop=0 speed=   1x elapsed=0:04:30.07    frame= 2707 fps= 10 q=23.0 size=N/A time=00:04:30.70 bitrate=N/A dup=1 drop=0 speed=   1x elapsed=0:04:30.57    frame= 2712 fps= 10 q=23.0 size=N/A time=00:04:31.20 bitrate=N/A dup=1 drop=0 speed=   1x elapsed=0:04:31.07    frame= 2717 fps= 10 q=23.0 size=N/A time=00:04:31.70 bitrate=N/A dup=1 drop=0 speed=   1x elapsed=0:04:31.57    frame= 2722 fps= 10 q=23.0 size=N/A time=00:04:32.20 bitrate=N/A dup=1 drop=0 speed=   1x elapsed=0:04:32.07    frame= 2727 fps= 10 q=23.0 size=N/A time=00:04:32.70 bitrate=N/A dup=1 drop=0 speed=   1x elapsed=0:04:32.57    [hls @ 0x55a92596fac0] Opening '/home/nian/Downloads/files/hls/segment_090.ts' for writing
[hls @ 0x55a92596fac0] Opening '/home/nian/Downloads/files/hls/stream.m3u8.tmp' for writing
frame= 2732 fps= 10 q=23.0 size=N/A time=00:04:33.20 bitrate=N/A dup=1 drop=0 speed=   1x elapsed=0:04:33.07    frame= 2737 fps= 10 q=23.0 size=N/A time=00:04:33.70 bitrate=N/A dup=1 drop=0 speed=   1x elapsed=0:04:33.57    frame= 2742 fps= 10 q=23.0 size=N/A time=00:04:34.20 bitrate=N/A dup=1 drop=0 speed=   1x elapsed=0:04:34.07    frame= 2747 fps= 10 q=23.0 size=N/A time=00:04:34.70 bitrate=N/A dup=1 drop=0 speed=   1x elapsed=0:04:34.57    frame= 2752 fps= 10 q=23.0 size=N/A time=00:04:35.20 bitrate=N/A dup=1 drop=0 speed=   1x elapsed=0:04:35.07    frame= 2757 fps= 10 q=23.0 size=N/A time=00:04:35.70 bitrate=N/A dup=1 drop=0 speed=   1x elapsed=0:04:35.57    [hls @ 0x55a92596fac0] Opening '/home/nian/Downloads/files/hls/segment_091.ts' for writing
[hls @ 0x55a92596fac0] Opening '/home/nian/Downloads/files/hls/stream.m3u8.tmp' for writing
frame= 2762 fps= 10 q=23.0 size=N/A time=00:04:36.20 bitrate=N/A dup=1 drop=0 speed=   1x elapsed=0:04:36.07    frame= 2767 fps= 10 q=23.0 size=N/A time=00:04:36.70 bitrate=N/A dup=1 drop=0 speed=   1x elapsed=0:04:36.57    frame= 2772 fps= 10 q=23.0 size=N/A time=00:04:37.20 bitrate=N/A dup=1 drop=0 speed=   1x elapsed=0:04:37.07    frame= 2777 fps= 10 q=23.0 size=N/A time=00:04:37.70 bitrate=N/A dup=1 drop=0 speed=   1x elapsed=0:04:37.57    frame= 2782 fps= 10 q=23.0 size=N/A time=00:04:38.20 bitrate=N/A dup=1 drop=0 speed=   1x elapsed=0:04:38.07    frame= 2787 fps= 10 q=23.0 size=N/A time=00:04:38.70 bitrate=N/A dup=1 drop=0 speed=   1x elapsed=0:04:38.57    [hls @ 0x55a92596fac0] Opening '/home/nian/Downloads/files/hls/segment_092.ts' for writing
[hls @ 0x55a92596fac0] Opening '/home/nian/Downloads/files/hls/stream.m3u8.tmp' for writing
frame= 2792 fps= 10 q=23.0 size=N/A time=00:04:39.20 bitrate=N/A dup=1 drop=0 speed=   1x elapsed=0:04:39.07    frame= 2797 fps= 10 q=23.0 size=N/A time=00:04:39.70 bitrate=N/A dup=1 drop=0 speed=   1x elapsed=0:04:39.57    frame= 2802 fps= 10 q=23.0 size=N/A time=00:04:40.20 bitrate=N/A dup=1 drop=0 speed=   1x elapsed=0:04:40.07    frame= 2807 fps= 10 q=23.0 size=N/A time=00:04:40.70 bitrate=N/A dup=1 drop=0 speed=   1x elapsed=0:04:40.57    frame= 2812 fps= 10 q=23.0 size=N/A time=00:04:41.20 bitrate=N/A dup=1 drop=0 speed=   1x elapsed=0:04:41.07    frame= 2817 fps= 10 q=23.0 size=N/A time=00:04:41.70 bitrate=N/A dup=1 drop=0 speed=   1x elapsed=0:04:41.57    [hls @ 0x55a92596fac0] Opening '/home/nian/Downloads/files/hls/segment_093.ts' for writing
[hls @ 0x55a92596fac0] Opening '/home/nian/Downloads/files/hls/stream.m3u8.tmp' for writing
frame= 2822 fps= 10 q=23.0 size=N/A time=00:04:42.20 bitrate=N/A dup=1 drop=0 speed=   1x elapsed=0:04:42.07    frame= 2827 fps= 10 q=23.0 size=N/A time=00:04:42.70 bitrate=N/A dup=1 drop=0 speed=   1x elapsed=0:04:42.57    frame= 2832 fps= 10 q=23.0 size=N/A time=00:04:43.20 bitrate=N/A dup=1 drop=0 speed=   1x elapsed=0:04:43.07    frame= 2837 fps= 10 q=23.0 size=N/A time=00:04:43.70 bitrate=N/A dup=1 drop=0 speed=   1x elapsed=0:04:43.57    frame= 2842 fps= 10 q=23.0 size=N/A time=00:04:44.20 bitrate=N/A dup=1 drop=0 speed=   1x elapsed=0:04:44.07    frame= 2847 fps= 10 q=23.0 size=N/A time=00:04:44.70 bitrate=N/A dup=1 drop=0 speed=   1x elapsed=0:04:44.57    [hls @ 0x55a92596fac0] Opening '/home/nian/Downloads/files/hls/segment_094.ts' for writing
[hls @ 0x55a92596fac0] Opening '/home/nian/Downloads/files/hls/stream.m3u8.tmp' for writing
frame= 2852 fps= 10 q=23.0 size=N/A time=00:04:45.20 bitrate=N/A dup=1 drop=0 speed=   1x elapsed=0:04:45.07    frame= 2857 fps= 10 q=23.0 size=N/A time=00:04:45.70 bitrate=N/A dup=1 drop=0 speed=   1x elapsed=0:04:45.57    frame= 2862 fps= 10 q=23.0 size=N/A time=00:04:46.20 bitrate=N/A dup=1 drop=0 speed=   1x elapsed=0:04:46.07    frame= 2867 fps= 10 q=23.0 size=N/A time=00:04:46.70 bitrate=N/A dup=1 drop=0 speed=   1x elapsed=0:04:46.57    frame= 2872 fps= 10 q=23.0 size=N/A time=00:04:47.20 bitrate=N/A dup=1 drop=0 speed=   1x elapsed=0:04:47.07    frame= 2877 fps= 10 q=23.0 size=N/A time=00:04:47.70 bitrate=N/A dup=1 drop=0 speed=   1x elapsed=0:04:47.57    [hls @ 0x55a92596fac0] Opening '/home/nian/Downloads/files/hls/segment_095.ts' for writing
[hls @ 0x55a92596fac0] Opening '/home/nian/Downloads/files/hls/stream.m3u8.tmp' for writing
frame= 2882 fps= 10 q=23.0 size=N/A time=00:04:48.20 bitrate=N/A dup=1 drop=0 speed=   1x elapsed=0:04:48.07    frame= 2887 fps= 10 q=23.0 size=N/A time=00:04:48.70 bitrate=N/A dup=1 drop=0 speed=   1x elapsed=0:04:48.57    frame= 2892 fps= 10 q=23.0 size=N/A time=00:04:49.20 bitrate=N/A dup=1 drop=0 speed=   1x elapsed=0:04:49.07    frame= 2897 fps= 10 q=23.0 size=N/A time=00:04:49.70 bitrate=N/A dup=1 drop=0 speed=   1x elapsed=0:04:49.57    frame= 2902 fps= 10 q=23.0 size=N/A time=00:04:50.20 bitrate=N/A dup=1 drop=0 speed=   1x elapsed=0:04:50.07    frame= 2907 fps= 10 q=23.0 size=N/A time=00:04:50.70 bitrate=N/A dup=1 drop=0 speed=   1x elapsed=0:04:50.57    [hls @ 0x55a92596fac0] Opening '/home/nian/Downloads/files/hls/segment_096.ts' for writing
[hls @ 0x55a92596fac0] Opening '/home/nian/Downloads/files/hls/stream.m3u8.tmp' for writing
frame= 2912 fps= 10 q=23.0 size=N/A time=00:04:51.20 bitrate=N/A dup=1 drop=0 speed=   1x elapsed=0:04:51.07    frame= 2917 fps= 10 q=23.0 size=N/A time=00:04:51.70 bitrate=N/A dup=1 drop=0 speed=   1x elapsed=0:04:51.57    frame= 2922 fps= 10 q=23.0 size=N/A time=00:04:52.20 bitrate=N/A dup=1 drop=0 speed=   1x elapsed=0:04:52.07    frame= 2927 fps= 10 q=23.0 size=N/A time=00:04:52.70 bitrate=N/A dup=1 drop=0 speed=   1x elapsed=0:04:52.57    frame= 2933 fps= 10 q=23.0 size=N/A time=00:04:53.30 bitrate=N/A dup=1 drop=0 speed=   1x elapsed=0:04:53.07    frame= 2937 fps= 10 q=23.0 size=N/A time=00:04:53.70 bitrate=N/A dup=1 drop=0 speed=   1x elapsed=0:04:53.57    [hls @ 0x55a92596fac0] Opening '/home/nian/Downloads/files/hls/segment_097.ts' for writing
[hls @ 0x55a92596fac0] Opening '/home/nian/Downloads/files/hls/stream.m3u8.tmp' for writing
frame= 2942 fps= 10 q=23.0 size=N/A time=00:04:54.20 bitrate=N/A dup=1 drop=0 speed=   1x elapsed=0:04:54.07    frame= 2948 fps= 10 q=23.0 size=N/A time=00:04:54.80 bitrate=N/A dup=1 drop=0 speed=   1x elapsed=0:04:54.57    frame= 2952 fps= 10 q=23.0 size=N/A time=00:04:55.20 bitrate=N/A dup=1 drop=0 speed=   1x elapsed=0:04:55.07    frame= 2957 fps= 10 q=23.0 size=N/A time=00:04:55.70 bitrate=N/A dup=1 drop=0 speed=   1x elapsed=0:04:55.57    frame= 2962 fps= 10 q=23.0 size=N/A time=00:04:56.20 bitrate=N/A dup=1 drop=0 speed=   1x elapsed=0:04:56.07    frame= 2967 fps= 10 q=23.0 size=N/A time=00:04:56.70 bitrate=N/A dup=1 drop=0 speed=   1x elapsed=0:04:56.57    [hls @ 0x55a92596fac0] Opening '/home/nian/Downloads/files/hls/segment_098.ts' for writing
[hls @ 0x55a92596fac0] Opening '/home/nian/Downloads/files/hls/stream.m3u8.tmp' for writing
frame= 2973 fps= 10 q=23.0 size=N/A time=00:04:57.30 bitrate=N/A dup=1 drop=0 speed=   1x elapsed=0:04:57.07    frame= 2977 fps= 10 q=23.0 size=N/A time=00:04:57.70 bitrate=N/A dup=1 drop=0 speed=   1x elapsed=0:04:57.57    frame= 2982 fps= 10 q=23.0 size=N/A time=00:04:58.20 bitrate=N/A dup=1 drop=0 speed=   1x elapsed=0:04:58.07    frame= 2987 fps= 10 q=23.0 size=N/A time=00:04:58.70 bitrate=N/A dup=1 drop=0 speed=   1x elapsed=0:04:58.57    frame= 2992 fps= 10 q=23.0 size=N/A time=00:04:59.20 bitrate=N/A dup=1 drop=0 speed=   1x elapsed=0:04:59.07    frame= 2998 fps= 10 q=23.0 size=N/A time=00:04:59.80 bitrate=N/A dup=1 drop=0 speed=   1x elapsed=0:04:59.57    [hls @ 0x55a92596fac0] Opening '/home/nian/Downloads/files/hls/segment_099.ts' for writing
[hls @ 0x55a92596fac0] Opening '/home/nian/Downloads/files/hls/stream.m3u8.tmp' for writing
frame= 3002 fps= 10 q=23.0 size=N/A time=00:05:00.20 bitrate=N/A dup=1 drop=0 speed=   1x elapsed=0:05:00.07    frame= 3007 fps= 10 q=23.0 size=N/A time=00:05:00.70 bitrate=N/A dup=1 drop=0 speed=   1x elapsed=0:05:00.57    frame= 3013 fps= 10 q=23.0 size=N/A time=00:05:01.30 bitrate=N/A dup=1 drop=0 speed=   1x elapsed=0:05:01.07    frame= 3017 fps= 10 q=23.0 size=N/A time=00:05:01.70 bitrate=N/A dup=1 drop=0 speed=   1x elapsed=0:05:01.57    frame= 3022 fps= 10 q=23.0 size=N/A time=00:05:02.20 bitrate=N/A dup=1 drop=0 speed=   1x elapsed=0:05:02.07    frame= 3028 fps= 10 q=23.0 size=N/A time=00:05:02.80 bitrate=N/A dup=1 drop=0 speed=   1x elapsed=0:05:02.57    [hls @ 0x55a92596fac0] Opening '/home/nian/Downloads/files/hls/segment_100.ts' for writing
[hls @ 0x55a92596fac0] Opening '/home/nian/Downloads/files/hls/stream.m3u8.tmp' for writing
frame= 3032 fps= 10 q=23.0 size=N/A time=00:05:03.20 bitrate=N/A dup=1 drop=0 speed=   1x elapsed=0:05:03.07    frame= 3038 fps= 10 q=23.0 size=N/A time=00:05:03.80 bitrate=N/A dup=1 drop=0 speed=   1x elapsed=0:05:03.57    frame= 3043 fps= 10 q=23.0 size=N/A time=00:05:04.30 bitrate=N/A dup=1 drop=0 speed=   1x elapsed=0:05:04.07    